<svg xmlns="http://www.w3.org/2000/svg" data-name="Layer 1" viewBox="0 0 100 125" x="0px" y="0px"><title>8.6</title><path d="M68,55.44a.5.5,0,0,0,.48-.52h0a.5.5,0,0,0-.52-.48l-8.28.29a2.1,2.1,0,0,1-.93-.23L56,52.86a1,1,0,0,1-.43-.75V47.89a1,1,0,0,1,.43-.75l2.84-1.64a2.1,2.1,0,0,1,.93-.23l8.28.29a.5.5,0,0,0,.52-.48h0a.5.5,0,0,0-.48-.52l-6.69-.23c-.27,0-.3-.13-.06-.27l7.58-4.38a.5.5,0,1,0-.5-.86L60.79,43.2c-.24.13-.33,0-.2-.2l3.14-5.9a.51.51,0,0,0-.21-.68.49.49,0,0,0-.67.21L59,44a2.18,2.18,0,0,1-.66.69l-2.84,1.64a1,1,0,0,1-.87,0l-3.65-2.11a1,1,0,0,1-.43-.75V40.14a2.12,2.12,0,0,1,.26-.92l4.4-7A.51.51,0,0,0,55,31.5a.5.5,0,0,0-.69.16l-3.54,5.67c-.15.24-.27.2-.27-.07V28.5A.51.51,0,0,0,50,28h0a.51.51,0,0,0-.5.5v8.76c0,.27-.12.31-.27.07l-3.54-5.67A.5.5,0,0,0,45,31.5a.51.51,0,0,0-.16.69l4.4,7a2.12,2.12,0,0,1,.26.92v3.28a1,1,0,0,1-.43.75l-3.65,2.11a1,1,0,0,1-.87,0l-2.84-1.64a2.18,2.18,0,0,1-.66-.69l-3.9-7.32a.49.49,0,0,0-.67-.21.51.51,0,0,0-.21.68L39.41,43c.13.25,0,.33-.2.2l-7.58-4.38a.5.5,0,1,0-.5.86l7.58,4.38c.24.14.21.26-.06.27L32,44.56a.5.5,0,0,0-.48.52h0a.5.5,0,0,0,.52.48l8.28-.29a2.1,2.1,0,0,1,.93.23l2.84,1.64a1,1,0,0,1,.43.75v4.22a1,1,0,0,1-.43.75L41.21,54.5a2.1,2.1,0,0,1-.93.23L32,54.44a.5.5,0,0,0-.52.48h0a.5.5,0,0,0,.48.52l6.69.23c.27,0,.3.13.06.27l-7.58,4.38a.5.5,0,0,0,.5.86l7.58-4.38c.24-.13.33,0,.2.2l-3.14,5.9a.51.51,0,0,0,.21.68.49.49,0,0,0,.67-.21l3.9-7.32a2.18,2.18,0,0,1,.66-.69l2.84-1.64a1,1,0,0,1,.87,0l3.65,2.11a1,1,0,0,1,.43.75v3.28a2.12,2.12,0,0,1-.26.92l-4.4,7a.51.51,0,0,0,.16.69.5.5,0,0,0,.69-.16l3.54-5.67c.15-.24.27-.2.27.07V71.5a.51.51,0,0,0,.5.5h0a.51.51,0,0,0,.5-.5V62.74c0-.27.12-.31.27-.07l3.54,5.67a.5.5,0,0,0,.69.16.51.51,0,0,0,.16-.69l-4.4-7a2.12,2.12,0,0,1-.26-.92V56.58a1,1,0,0,1,.43-.75l3.65-2.11a1,1,0,0,1,.87,0l2.84,1.64a2.18,2.18,0,0,1,.66.69l3.9,7.32a.49.49,0,0,0,.67.21.51.51,0,0,0,.21-.68L60.59,57c-.13-.25,0-.33.2-.2l7.58,4.38a.5.5,0,1,0,.5-.86l-7.58-4.38c-.24-.14-.21-.26.06-.27ZM54.52,51.53c0,.28-.2.39-.44.25l-2.65-1.53a.26.26,0,0,1,0-.5l2.65-1.53c.24-.14.44,0,.44.25Zm-.94-4.68c.24.14.24.37,0,.5l-2.65,1.53c-.24.14-.43,0-.43-.25V45.57c0-.27.19-.38.43-.25Zm-4.51-1.53c.24-.13.43,0,.43.25v3.06c0,.28-.19.39-.43.25l-2.65-1.53c-.24-.13-.24-.36,0-.5Zm-3.59,3.15c0-.28.2-.39.44-.25l2.65,1.53a.26.26,0,0,1,0,.5l-2.65,1.53c-.24.14-.44,0-.44-.25Zm.94,4.68c-.24-.14-.24-.37,0-.5l2.65-1.53c.24-.14.43,0,.43.25v3.06c0,.27-.19.38-.43.25Zm4.51,1.53c-.24.13-.43,0-.43-.25V51.37c0-.28.19-.39.43-.25l2.65,1.53c.24.13.24.36,0,.5Z"/><text x="0" y="115" fill="#000000" font-size="5px" font-weight="bold" font-family="'Helvetica Neue', Helvetica, Arial-Unicode, Arial, Sans-serif">Created by Landan Lloyd</text><text x="0" y="120" fill="#000000" font-size="5px" font-weight="bold" font-family="'Helvetica Neue', Helvetica, Arial-Unicode, Arial, Sans-serif">from the Noun Project</text></svg>