<?xml version="1.0" encoding="UTF-8" standalone="no"?>
<svg
   id="_0"
   data-name="0"
   width="600"
   height="600"
   viewBox="0 0 600 600"
   version="1.1"
   sodipodi:docname="tree-design-svg-free-silhouette-download.svg"
   inkscape:version="1.2.1 (9c6d41e410, 2022-07-14)"
   xmlns:inkscape="http://www.inkscape.org/namespaces/inkscape"
   xmlns:sodipodi="http://sodipodi.sourceforge.net/DTD/sodipodi-0.dtd"
   xmlns="http://www.w3.org/2000/svg"
   xmlns:svg="http://www.w3.org/2000/svg"
   xmlns:rdf="http://www.w3.org/1999/02/22-rdf-syntax-ns#"
   xmlns:cc="http://creativecommons.org/ns#"
   xmlns:dc="http://purl.org/dc/elements/1.1/">
  <title
     id="title1471">Free Tree Silhouette SVG Design for Download</title>
  <defs
     id="defs323" />
  <sodipodi:namedview
     id="namedview321"
     pagecolor="#ffffff"
     bordercolor="#000000"
     borderopacity="0.25"
     inkscape:showpageshadow="2"
     inkscape:pageopacity="0.0"
     inkscape:pagecheckerboard="0"
     inkscape:deskcolor="#d1d1d1"
     showgrid="false"
     inkscape:zoom="0.9593082"
     inkscape:cx="224.64105"
     inkscape:cy="244.44699"
     inkscape:window-width="1920"
     inkscape:window-height="1001"
     inkscape:window-x="-9"
     inkscape:window-y="-9"
     inkscape:window-maximized="1"
     inkscape:current-layer="_0" />
  <g
     id="SPLINE">
    <g
       id="g312">
      <path
         d="m80.7,314.16c1.94,2.06,3.34,4.71,7.31,5.76-5.24,1.65-8.87,4.54-13.27,5.92-9.68,3.03-22.12-4.98-23.77-13.27,4.29.66,7.92-1.35,11.51-3,7.94-3.65,13.67-.23,18.22,4.59Z"
         style="fill: #05a101;"
         id="path2" />
      <path
         d="m37.52,270.93c1.35,3.2,2.37,6.54,4.61,9.68-8.06.77-15.66,2.2-22.32-3.86-4.04-3.67-4.24-8.01-3.9-12.76.08-1.15.76-1.33,1.74-1.31,2.87.08,5.76-.09,8.61.16,5.29.46,9.15,3.09,11.26,8.09Z"
         style="fill: #05a101;"
         id="path4" />
      <path
         d="m57.71,296.19c-2.04.29-3.52,1.35-5.01,2.37-1.42.97-2.84,1.93-4.23,2.94-4.73,3.42-9.55,3.4-14.46.42-2.7-1.63-5.44-3.18-8.05-4.93-1.08-.72-3.19.55-3.23-1.25-.03-.97,1.55-2.02,2.49-2.96,7.34-7.43,18.29-7.96,26.28-1.19,1.95,1.65,4.19,2.87,6.21,4.6Z"
         style="fill: #05a101;"
         id="path6" />
      <path
         d="m56.39,326.58c-2.99.26-5.51,1.55-8.06,2.76-8.51,4.06-13.52,3.17-20.36-3.57-2.55-2.5-4.65-5.62-9.04-6.47,4.79-4.78,10.26-6.92,16.42-7.06,10.22-.23,15.21,7.56,21.04,14.34Z"
         style="fill: #05a101;"
         id="path8" />
      <path
         d="m60.07,331.71c-1.1,2.9-2.04,5.35-2.96,7.82-1.55,4.15-4.63,6.15-8.96,6.37-2.52.12-5.09-.12-7.49.99-1.47.68-1.52-.21-1.57-1.33-.27-6.19,6-13.41,12.2-13.82,2.84-.19,5.7-.03,8.78-.03Z"
         style="fill: #05a101;"
         id="path10" />
      <path
         d="m78.6,335.27c-1.02,3.58-1.98,6.39-2.62,9.27-2.52,11.47-14.86,16.56-25.92,14.25-1.62-.34-1.76-1.24-.67-2.15,2.56-2.13,3.17-5.19,4.17-8.06,3.11-8.96,7.08-11.78,16.54-11.67,2.74.03,5.49.04,8.5-1.64Z"
         style="fill: #05a101;"
         id="path12" />
      <path
         d="m131.63,353.64c-2.17,3.23-4,6.31-6.18,9.13-6.57,8.48-18.21,7.89-25.94,3.22-.96-.58-1.62-1.59-.27-2.11,3.15-1.2,4.6-3.98,6.48-6.35,5.56-7,9.55-8.28,18.01-5.35,2.49.86,5,1.43,7.9,1.46Z"
         style="fill: #05a101;"
         id="path14" />
      <path
         d="m141.05,340.51c1.73,1.97,3.24,4.14,6.51,5.88-3.51.41-5.64,1.61-7.85,2.65-8.54,4-19.32-.25-22.93-8.96-.52-1.25-.67-2.1,1.09-1.91,2.67.28,4.98-.93,7.37-1.76,7.23-2.51,10.74-1.67,15.81,4.1Z"
         style="fill: #05a101;"
         id="path16" />
      <path
         d="m156.92,357.21c-1.96,3.13-2.94,6.13-3.87,9.16-1.66,5.41-5.35,8.54-11.04,9.12-2.22.23-4.45.31-6.67.47-.84.06-1.73-.01-2.51.25-3.55,1.14-3.93.86-3.23-3.02,1.77-9.73,10.39-17.3,19.78-16.03,2.28.31,4.65.05,7.54.05Z"
         style="fill: #05a101;"
         id="path18" />
      <path
         d="m166.21,331.02c5.68-.02,10.12,3.77,10.98,9.4.25,1.67.43,3.34.68,5.36-.68-.22-1.08-.43-1.49-.45-8.11-.5-10.63-5.94-11.7-12.9-.27-1.78.61-1.4,1.53-1.41Z"
         style="fill: #05a101;"
         id="path20" />
      <path
         d="m186.68,347.59c-7.01-13.58-.83-22.63,8.9-25.21-.36,3.15.33,6.12,1.13,9.08,1.39,5.21-.55,9.1-4.79,12.1-1.8,1.27-3.88,2.15-5.24,4.03Z"
         style="fill: #05a101;"
         id="path22" />
      <path
         d="m210.07,358.94c-.84,2.67-1.07,5.08-1.34,7.49-.57,5.04-3.25,8.32-8.29,9.65-2.53.66-5.2,1.05-7.42,2.65-1.08.77-1.38.16-1.65-.87-1.51-5.75,1.99-12.81,7.22-15.97,1.23-.75,2.56-1.27,3.94-1.52,2.37-.42,4.74-.9,7.54-1.43Z"
         style="fill: #05a101;"
         id="path24" />
      <path
         d="m212.38,381.65c3.49,11.75-2.99,22.6-15.56,25.53,1.14-4.7-.2-9.08-.83-13.55-.78-5.52,1.18-9.99,5.93-13.12,2.82-1.85,5.87-3.38,8.55-6.6.31,3.14,1.22,5.41,1.91,7.74Z"
         style="fill: #05a101;"
         id="path26" />
      <path
         d="m236.67,360.44c.67,1.51-.48,1.57-1.49,1.47-8.17-.83-16.28-7.28-16.41-15.48-.06-3.69-.01-7.38-.01-11.75,2.94,2.02,5.33,3.11,7.85,3.96,5.88,2,8.9,6.05,9.21,12.34.15,3.15-.49,6.39.85,9.46Z"
         style="fill: #05a101;"
         id="path28" />
      <path
         d="m68.94,278.93c3.34,4.11,1.95,8.93,2.1,13.81-3.11-1.72-6.39-2.59-9.34-4.44-2.83-1.81-3.98-4.86-3.97-8.46,0-2.29-.25-4.57-1.4-7.03,5.35.2,9.42,2.21,12.61,6.12Z"
         style="fill: #05a101;"
         id="path30" />
      <path
         d="m72.67,258.63c-2.95.7-4.43,3.1-6.36,4.86-7.2,6.56-11.22,7.18-19.85,2.91-2.57-1.26-5.11-2.63-8.09-2.64-1.58-.01-1.45-.75-.85-1.8,5.16-9.08,18.02-13.99,27.38-7.71,2.43,1.63,4.94,3.12,7.77,4.38Z"
         style="fill: #05a101;"
         id="path32" />
      <path
         d="m78.89,284.19c-.86-.75-1.83-1.46-3.35-1.32l-.61-.81c4.01-3.14,8.18-5.26,13.1-5.35,5.7-.11,10.35,1.85,13.67,6.69,1.13,1.65,2.61,3.05,4.17,4.83-4.2,1.54-8.2,3.43-12.42,4.43-3.5.83-6.6-1.03-9.19-3.47-1.79-1.67-3.52-3.4-5.37-5Z"
         style="fill: #05a101;"
         id="path34" />
      <path
         d="m128.81,287.89c7.05,3.8,8.52,6.53,7.56,14.59-.2,1.71-.53,3.38.38,5.54-2.96-1.21-5.37-2.11-7.72-3.17-7.11-3.18-10.66-12.44-7.69-19.69.55-1.37,1.05-1.69,2.15-.61,1.52,1.5,3.47,2.35,5.32,3.34Z"
         style="fill: #05a101;"
         id="path36" />
      <path
         d="m109.93,265.63c.59,3.62-2.18,5.99-4.07,8.75-.47.69-.84.56-1.44-.07-.51-.54-.97-1.06-1.38-1.57-3.44-4.28-3.49-7.81-.42-13.31.15-.27.35-.53.49-.81.51-1.01.93-1.71,1.35-2.09.86-.79,1.69-.2,3.15,1.75,1.56,2.09,2.45,4.44,2.32,7.35Z"
         style="fill: #05a101;"
         id="path38" />
      <path
         d="m75.93,240.39c5.59,3.28,5.96,9.45,8.49,14.98-3.51-1.87-6.85.13-10.24-.2-4.73-.45-8.11-2.92-9.92-7.35-1.25-3.05-2.55-6.04-5.23-8.59,6.06-2.48,11.5-2.02,16.9,1.16Z"
         style="fill: #05a101;"
         id="path40" />
      <path
         d="m70.89,187.22c6.5,4.06,6.77,11.4,10.22,17.91-5.38-1.46-10.42.04-15.37-1.03-4.32-.94-6.82-3.98-8.72-7.75-1.84-3.65-2.64-7.9-6.65-10.88,7.63-2.37,14.15-2.22,20.52,1.75Z"
         style="fill: #05a101;"
         id="path42" />
      <path
         d="m85.35,211.86c3.65,1.64,6.66,4.45,10.57,5.87-2.96.94-4.65,3.18-6.62,5.06-6.93,6.66-11.06,7.31-19.73,3.22-2.86-1.35-5.7-2.9-9.02-2.88-1.44.01-1.48-.54-.92-1.76,3.97-8.56,16.96-13.44,25.72-9.51Z"
         style="fill: #05a101;"
         id="path44" />
      <path
         d="m100.16,232.57c1.48.99,2.93,2.03,4.4,3.06-7.07,7.8-13.72,6.65-18.82,2.71-1.69-1.31-2.89-2.43.31-3.44,1.47-.47,2.81-1.49,4.09-2.42,3.39-2.47,6.71-2.16,10.02.09Z"
         style="fill: #05a101;"
         id="path46" />
      <path
         d="m107.77,240.68c2.6.56,5.2.99,7.84,1.35-2.01,1.3-2.87,3.45-3.92,5.43-2.03,3.82-4.38,5.83-7.71,6.28-1.33.18-2.81.11-4.5-.19-2.35-.42-4.66-.98-6.97.22-.46-7.21,8.18-14.63,15.26-13.09Z"
         style="fill: #05a101;"
         id="path48" />
      <path
         d="m144.29,238.03c7.92-.94,13.12,6.03,11.88,16.38-10.41-.59-12.49-7.65-11.88-16.38Z"
         style="fill: #05a101;"
         id="path50" />
      <path
         d="m152.04,265.52c4.53,2.14,6.79,5.5,6.37,10.63-.19,2.3-.03,4.62-.03,6.99-11.4-2.16-16.57-9.44-14.26-19.47.51-2.21,1.27-2.89,3-1,1.34,1.47,3.21,2.04,4.92,2.85Z"
         style="fill: #05a101;"
         id="path52" />
      <path
         d="m186.35,248.46c2.46,2.86,3.49,6.61,6.65,9.54-4.97.15-9.28,2.34-13.98.9-4.96-1.52-9.99-7.12-10.58-12.1-.12-1,.02-1.4,1.21-1.15,2.86.61,5.73.24,8.59-.22,3.3-.53,5.99.89,8.11,3.03Z"
         style="fill: #05a101;"
         id="path54" />
      <path
         d="m202.13,271.91c-1.03,1.85-1.99,3.38-2.76,5-3.46,7.29-7.43,9.39-15.41,7.99-1.23-.22-2.52-.74-3.67-.19-2.74,1.31-2.72-.24-2.27-2.1,1.89-7.8,10.29-14.02,17.99-11.7,1.9.57,3.94.65,6.12,1Z"
         style="fill: #05a101;"
         id="path56" />
      <path
         d="m96.3,153c.21,4.55-.57,9.1.29,14.32-3.37-2.19-6.62-3.14-9.77-4.33-10.84-4.09-13.89-17.56-10.29-26.86.34-.89,1.08-2.08,1.9-.57,1.53,2.85,4.44,3.46,6.93,4.76,2.16,1.13,4.37,2.17,6.3,3.69,2.9,2.29,4.47,5.18,4.64,8.99Z"
         style="fill: #05a101;"
         id="path58" />
      <path
         d="m103.95,175.58c-3.46,2.01-5.38,4.27-7.4,6.44-8.02,8.6-21.49,6.73-29.24-.79-.92-.89-1.41-1.61.38-2.15,3.13-.95,5.5-3.14,7.93-5.2,7.01-5.93,11.37-6.4,19.4-1.98,2.58,1.42,5.02,3.14,8.93,3.68Z"
         style="fill: #05a101;"
         id="path60" />
      <path
         d="m114.66,188.29c.37.77.69,1.46-.71,1.82-6.57,1.68-11.4-.64-13.87-6.69-.97-2.36-.98-3.69,2.15-2.95.5.12,1.05.02,2.25.02,7.01-.31,7.1,1.42,10.18,7.8Z"
         style="fill: #05a101;"
         id="path62" />
      <path
         d="m116.34,194.73c2.47.31,4.93,1.28,7.73.48-2.28,3.23-2.7,7.29-5.11,10.32-4.74,6-13.28,7.64-21.48,3.97,2.82-2.24,4.19-5.36,5.81-8.31,2.84-5.19,7.23-7.19,13.05-6.46Z"
         style="fill: #05a101;"
         id="path64" />
      <path
         d="m140.72,197.95c1.72,4.61.82,8.53-2.4,12.08-2.48,2.73-5.83,4.66-7.43,8.23-.54,1.21-1.2.27-1.62-.29-4.76-6.46-5.34-18.15,2.01-23.33,2.34-1.65,4.71-3.24,7.3-6.05-.61,4.02,1.11,6.62,2.14,9.36Z"
         style="fill: #05a101;"
         id="path66" />
      <path
         d="m179.89,210.75c1.12,3.29,1.12,6.98,4.03,10.15-4.13-.72-7.66-.5-11.16-.79-7.1-.6-13.5-6.72-14.9-14.23-.39-2.1-1.09-4.23-.5-6.67,3.58,2.05,7.39,2.27,11.18,2.6,5.74.51,9.46,3.41,11.35,8.94Z"
         style="fill: #05a101;"
         id="path68" />
      <path
         d="m164.93,157.31c4.67,7.86,7.04,15.67-2.2,22.04-7.14-8.25-6.09-18.51,2.2-22.04Z"
         style="fill: #05a101;"
         id="path70" />
      <path
         d="m135.68,166.23c4.33-.77,4.63-.43,3.5,3.75-.25.91-.49,1.84-.68,2.77-.69,3.33-2.51,5.43-6,6.1-1.84.35-3.74.52-5.5,1.54-.24-7.72,1.83-11.59,7.18-13.69.48-.19.99-.38,1.5-.47Z"
         style="fill: #05a101;"
         id="path72" />
      <path
         d="m118.94,142.41c4.91,5.84,6,11.32.23,17.22-6.2-4.92-7.57-11.88-3.22-17.23,1-1.22,1.26-2.05,2.99,0Z"
         style="fill: #05a101;"
         id="path74" />
      <path
         d="m106.77,119.11c7.98,6.29,9.38,11.6,5.58,21.14-.95,2.41-2.12,4.76-1.99,7.63-2.69-3.2-6.5-4.78-9.44-7.42-7.7-6.92-7.31-20.15-1.36-27.97.84-1.11,1.38-.94,1.91.42,1.02,2.66,3.11,4.47,5.3,6.2Z"
         style="fill: #05a101;"
         id="path76" />
      <path
         d="m138.59,129.32c.6,3.23.35,6.57,1.74,10.36-2.58-2.16-5.1-2.27-7.58-2.69-5.77-.98-10.89-2.6-12.37-11.05-.31-1.8-.87-3.57-1.12-5.38-.26-1.9-1.67-3.19-2.42-4.85,9.16-2.66,19.99,4.18,21.75,13.61Z"
         style="fill: #05a101;"
         id="path78" />
      <path
         d="m149.97,131.35c-2.04,1.06-4.17,1.96-6.28,2.95-2.88-13,.93-19.64,12.55-21.5-.94,3.04-1.07,6.03-.73,9.07.5,4.49-1.73,7.5-5.54,9.48Z"
         style="fill: #05a101;"
         id="path80" />
      <path
         d="m208.63,179.55c.53,2.4.8,4.9,2.7,6.88-4.01-.39-7.72-.57-11.44-.61-3.23-.04-5.83-1.72-8.16-3.76-4.52-3.95-6.42-9.13-6.82-14.96-.06-.96.01-2.45,1.37-1.51,2.83,1.97,6.08,1.78,9.11,1.98,7.76.52,11.65,4.86,13.24,11.98Z"
         style="fill: #05a101;"
         id="path82" />
      <path
         d="m207.33,153.49c1.39,2.97,1.12,3.4-2.02,3.55-1.27.06-2.53.38-3.79.44-4.35.18-6.34-1.11-8.24-5.11-.59-1.24-1.35-2.39-2.15-3.77,7.57-2.8,13.47-.99,16.2,4.89Z"
         style="fill: #05a101;"
         id="path84" />
      <path
         d="m186.06,122.92c4.04,2.57,5.65,6.4,4.83,11.08-.91,3.72-1.02,7.02-3.12,7.23-2.37.23-6.92-7.11-6.42-9.72.56-2.89,1.49-5.71,2.43-8.51.53-1.58,1.62-.49,2.28-.08Z"
         style="fill: #05a101;"
         id="path86" />
      <path
         d="m171.12,129.2c2.71,4.56,2.48,8.47-.8,12.65-1.49,1.91-3.05,3.76-3.8,6.62-3.62-5.35-8.37-9.5-7.13-16.41.74-4.15,2.63-7.56,5.65-10.39.77-.73,1.75-1.69,2.25.27.69,2.73,2.43,4.9,3.83,7.26Z"
         style="fill: #05a101;"
         id="path88" />
      <path
         d="m160.06,92.26c7.27,1.15,16.56,7.8,16.02,17.79-.19,3.55-1.03,7.06-1.67,11.22-2.3-2.94-5.27-3.56-7.83-4.85-5.33-2.69-7.68-6.89-7.43-12.8.15-3.45,1.46-6.93-.28-10.38-.54-1.07.46-1.09,1.19-.98Z"
         style="fill: #05a101;"
         id="path90" />
      <path
         d="m187.95,88.16c.98,3.9-.08,7.16-2.94,9.8-2.16,1.99-4.51,3.76-6.79,5.63-4.8-8.68-4.68-15.19.32-20.95,1.56-1.8,3.5-3.07,5.57-4.17,1.35-.71,2.42-.94,2.2,1.3-.3,2.94.94,5.63,1.64,8.39Z"
         style="fill: #05a101;"
         id="path92" />
      <path
         d="m185.64,119.18c-1.72.58-3.33,1.5-4.98,2.26-3.97-11.63,2.49-22.63,14.23-24.15l2.14,1.72c-.71.74-.89,1.7-.9,2.73,0,1.07,0,2.13-.02,3.2-.14,8.57-2.35,11.52-10.47,14.24Z"
         style="fill: #05a101;"
         id="path94" />
      <path
         d="m197.36,98.7c-.12.1-.23.2-.33.31l-2.14-1.72c.3-.04.61-.07.92-.1,2.57-.22,2.42-1.26,2.24-3.03-.15-1.38-1.63-3.15-.51-3.97,1.06-.78,2.92.32,4.37.81,9.1,3.1,17.03,12.19,13.57,24.22-.6,2.09-.66,4.33-1.02,6.9-2.45-3-5.73-3.91-8.65-5.34-6.3-3.1-8.78-8.13-8.21-14.94.08-.96.04-1.93.04-2.89,0-.05-.11-.1-.28-.25Z"
         style="fill: #05a101;"
         id="path96" />
      <path
         d="m224.81,77.14c-.66,3.55-.59,3.47-3.88,1.66-5.04-2.77-9.7-5.82-10.75-12.09-.24-1.46-.34-2.95-.5-4.42.01-3.37.82-6.52,2.47-9.45.4-.7,1.14-1.85,1.79-.53,1.46,2.99,4.33,4.3,6.75,6.08,5.17,3.8,6.9,8.62,5.13,14.75-.38,1.32-.76,2.65-1.01,4Z"
         style="fill: #05a101;"
         id="path98" />
      <path
         d="m197.33,59.76c6.45,1.62,12.72,7.16,11.45,15.54-.26,1.67-.46,3.35-.04,5.61-2.61-1.67-5.04-2.39-7.36-3.37-3.92-1.65-5.87-4.65-5.98-8.9-.06-2.22.21-4.59-.47-6.62-1.04-3.13.66-2.7,2.4-2.26Z"
         style="fill: #05a101;"
         id="path100" />
      <path
         d="m221.74,172.52c7.68,2.3,12.91,11.03,11.14,18.81-.61,2.65-1.93,5.11-2.24,8.32-3.43-2.65-6.68-4.83-9.53-7.45-2.68-2.46-3.32-5.81-2.68-9.4.52-2.92,1.55-5.79,1.13-8.82-.3-2.15.68-1.91,2.18-1.46Z"
         style="fill: #05a101;"
         id="path102" />
      <path
         d="m249.51,221.98c-4.72-.64-8.79,2.33-13.46,2.14-3.48-.13-6.17-1.42-8.3-3.98-2.01-2.43-3.53-5.24-6.21-7.36,3.05-1.11,5.69-2.18,8.4-3.03,7.81-2.42,17.6,2.8,20.03,10.59.22.71.69,1.8-.46,1.64Z"
         style="fill: #05a101;"
         id="path104" />
      <path
         d="m251.86,199.48c-2.08,2.4-4.01,4.96-6.3,7.16-2.7,2.59-5.95,1.8-9.09.75-1.17-.39-2.33-.78-3.66-.59,5.1-9.62,10.37-11.57,19.05-7.32Z"
         style="fill: #05a101;"
         id="path106" />
      <path
         d="m232.91,135.74c2.04.07,3.37.59,1.94,2.97-.26.44-.37.98-.53,1.48-2.25,7.26-4.28,8.81-11.79,8.97-.59.01-1.17.23-1.29-.8-.69-5.93,5.38-12.54,11.67-12.62Z"
         style="fill: #05a101;"
         id="path108" />
      <path
         d="m239.5,77.89c1.35-.17,2.07-.09,1.69,1.56-.23,1.02-.27,2.1-.29,3.15-.13,6.69-2.23,9.32-8.7,10.97-1.06.28-1.63.16-1.67-1.06-.03-1.17-.14-2.33-.22-3.5-.24-5.54,3.84-10.42,9.19-11.12Z"
         style="fill: #05a101;"
         id="path110" />
      <path
         d="m233.95,45.76c9.19,2.01,16.98,9.98,14.9,20.39-.49,2.44-1.15,4.84-1.07,7.98-1.8-1.72-3.4-2.61-5.1-3.42-9.76-4.61-10.81-7.65-9.7-18.71.15-1.58.36-3.06-.37-4.51-.79-1.56-.26-2.08,1.34-1.73Z"
         style="fill: #05a101;"
         id="path112" />
      <path
         d="m261.92,42.02c1.62,5.77.65,9.19-4.02,12.82-1.83,1.41-3.89,2.54-5.48,5.18-1.21-3.56-2.43-6.5-3.21-9.55-1.61-6.24,3.64-14.89,10.08-16.99,1.12-.37,1.66-.2,1.42,1.09-.48,2.62.53,5.04,1.21,7.45Z"
         style="fill: #05a101;"
         id="path114" />
      <path
         d="m271.57,61.94c1.51,0,2.06.36,1.05,1.74-1.33,1.84-1.05,4.02-1.25,6.08-.77,7.91-3.67,11.26-11.43,12.87-1.96.41-3.81.98-5.62,2.22,1.5-4.71-.46-9.71,1.96-14.1,3.31-6,8.48-8.82,15.29-8.81Z"
         style="fill: #05a101;"
         id="path116" />
      <path
         d="m236.73,110.14c.1-2.09-.9-3.7-2.03-5.23-2.61-3.5-6.09-5.89-10.07-7.6-5.89-2.54-10.6-6.91-14.24-13.43,2.06.91,3.15,2.28,4.39,3.41,2.53,2.28,5.14,4.43,8.19,6.04,2.24,1.19,2.72.38,2.69-1.8-.04-3.57-.37-7.15.4-11.59,1.49,4.75,1.98,8.83,2.92,12.78,1.07,4.5,5.36,4.73,7.96,7.14.6.56,1.08-.35,1.38-.87,1.53-2.73,3.69-4.96,5.84-7.16,4.03-4.12,6.34-8.94,6.86-14.7.12-1.4.04-2.98,1.15-4.21,1.23,3.17,1.1,4.16-2.15,16.85,6.25-3.28,12.73-3.89,19.24-4.35,1.41-.1,1.95-1.14,2.67-2.03,1.11-1.37,1.98-2.99,3.84-3.86.53,1.62-.63,2.55-1.23,3.51-1.33,2.16-.47,2.84,1.64,2.96,5.37.29,9.43-1.93,12.36-6.4.68-1.04.95-2.4,2.49-3.15-.42,3.54-2.23,6.04-4.76,8.04-3.55,2.8-7.66,4.03-12.18,3.99-6.18-.06-12.32.13-18.34,1.86-9.82,2.82-16.33,11.02-16.97,20.57-.04.52-.06,1.05-.06,1.57l-2.04.04c-.01-.78.01-1.58.05-2.38Z"
         style="fill: #05a101;"
         id="path118" />
      <path
         d="m276.72,51.47c8.83,1.26,13.75,8.06,12.93,14.93-.23,1.88-.32,3.78-.53,6.28-2.45-1.71-4.99-2.44-7.41-3.45-3.48-1.46-5.19-4.21-5.45-7.91-.2-2.85.02-5.75-.78-8.53-.4-1.39.26-1.46,1.24-1.32Z"
         style="fill: #05a101;"
         id="path120" />
      <path
         d="m292.28,62.04c.34-7.65,7.82-13.85,15.69-14.55.86-.08,1.74.08,1.25,1.19-1.41,3.2-.98,6.59-1.19,9.91-.33,5.27-3.52,8.19-7.82,9.48-2.72.91-4.96,2.49-7.95,3.66,0-3.44-.11-6.57.02-9.69Z"
         style="fill: #05a101;"
         id="path122" />
      <path
         d="m311.79,72.49c1.27,1.11,2.57,2.14-.33,2.81-.68.16-1.28.73-1.88,1.16-5.81,4.18-8.48,4.11-14.28-.25-1-.75-1.28-1.27-.18-2.15,1.72-1.37,3.38-2.83,5.53-3.66,3.63-1.02,7.7-.91,11.14,2.09Z"
         style="fill: #05a101;"
         id="path124" />
      <path
         d="m337.94,65.14c1.58,3.69,1.46,7.81,3.07,11.61-2.43-1.36-4.92-.85-7.34-.98-8.64-.47-11.69-2.81-14.26-11.04-.8-2.56-1.67-5.09-3.37-7.22-.76-.97-1.06-1.64.54-1.88,7.19-1.06,13.72.01,18.9,5.68,1.06,1.15,1.86,2.42,2.46,3.83Z"
         style="fill: #05a101;"
         id="path126" />
      <path
         d="m344.2,42.36c3.41,4.96,3.34,9.82-.17,14.7-1.41,1.95-3.09,3.75-3.93,6.64-2.19-2.93-4.17-5.29-5.82-7.85-4.03-6.22-1.87-16.43,4.25-20.88.87-.63,1.7-1.23,2,.42.5,2.71,2.18,4.8,3.67,6.97Z"
         style="fill: #05a101;"
         id="path128" />
      <path
         d="m351.68,48.1c8.2,5.9,9.37,19.26,2.41,26.54-2.02,2.11-4.64,3.63-6.2,6.44-.65-4.2-3.48-7.22-4.83-10.91-1.85-5.05-.5-9.37,2.99-13.22,2.37-2.61,4.84-5.17,5.63-8.85Z"
         style="fill: #05a101;"
         id="path130" />
      <path
         d="m275.24,102.7c.02,5.93-2.67,10.18-8.19,12.38-2.93,1.17-5.95,2.11-8.73,3.76-3.36-17.97,5.34-26.27,18.87-26.62-2.14,3.49-1.96,6.99-1.95,10.48Z"
         style="fill: #05a101;"
         id="path132" />
      <path
         d="m254.23,125.79c-1.29-.5-2.57-1.03-3.9-1.39-6.13-1.67-9.97-7.21-9.6-13.37.05-.81.18-1.65.38-2.48.22-.92.37-1.87,1.56-.96,2.07,1.59,4.55,2.27,6.88,3.28,3.47,1.5,5.29,4.1,5.34,7.95.02,1.78.26,3.57.43,5.84.85-1.39.05-2.65,1.15-3.76.13,2.17.22,4.33.26,6.47h-1.16c0-.89-.6-1.29-1.34-1.58Z"
         style="fill: #05a101;"
         id="path134" />
      <path
         d="m239.32,117.81c2.11,9.35,7.38,16.96,13.59,24.74,1.54-5.27,2.03-10.08,2.64-14.88.01-.1.02-.2.02-.29h1.16c.14,7.7-.45,15.2-2.86,22.57-1.71,5.24-3.42,10.49-4.54,15.92-.83,4.03-.88,7.85-.22,11.49l-2.93.5c-.54-2.91-.85-5.84-.77-8.83.14-5.98,2.18-11.46,4.47-16.84,1.12-2.61.92-4.49-.84-6.95-7.03-9.83-12.3-20.39-12.36-32.72l2.04-.04c0,1.75.2,3.53.6,5.33Z"
         style="fill: #05a101;"
         id="path136" />
      <path
         d="m262.96,124.42c6.77,1.5,11.13,9.46,11.08,17.09-.02,3.69-.77,7.18-1.62,10.64l-1.91-.46c-3.25-2.12-6.09-4.07-8.44-6.5-2.82-2.91-3.06-6.56-1.92-10.42,1.02-3.43,3.22-6.52,2.81-10.35Z"
         style="fill: #05a101;"
         id="path138" />
      <path
         d="m298.57,97.09c-2.24,2.93-1.85,6.28-1.64,9.68.45,7.4-2.41,11.42-10.12,14.74,8.27-1.06,10.33,6.34,15.2,10.45-3.01,1.22-5.69,2.46-8.47,3.39-7.06,2.37-17.14-3.12-18.93-10.17-.32-1.24.08-1.36,1.23-1.37,4.79-.06,5.48-.4,4.14-5.16-3.1-10.99,6.48-20.87,17.72-21.99.18,0,.37.18.87.43Z"
         style="fill: #05a101;"
         id="path140" />
      <path
         d="m306.85,137.97c2.85,1.04,5.41,2.97,9.07,2.61-1.9,2.4-3.57,4.2-4.89,6.22-5.77,8.87-18.83,8.43-25.48,3.24-1.34-1.04-1.84-1.61.09-2.56,3.12-1.52,5.13-4.39,7.5-6.79,4.01-4.04,8.54-4.61,13.71-2.72Z"
         style="fill: #05a101;"
         id="path142" />
      <path
         d="m286.79,168.47c1.49,5.05.03,8.9-4.36,11.77-1.29.85-2.41,1.96-3.64,2.98-.79-1.92-1.52-3.65-2.2-5.4-2.32-6.04,1.05-13.67,7.07-16.16,1.13-.47,1.67-.57,1.87.93.26,1.98.69,3.96,1.26,5.88Z"
         style="fill: #05a101;"
         id="path144" />
      <path
         d="m304.68,164.45c3.37-.21,6.8.41,10.1-.9,1.44-.57,1.22.79,1.11,1.5-1.19,7.38-6.18,14.64-15.23,14.98-2.97.11-5.83-.91-9.44-.24,2.25-3.31,3.01-6.63,4.51-9.63,1.83-3.65,4.93-5.45,8.95-5.71Z"
         style="fill: #05a101;"
         id="path146" />
      <path
         d="m306.01,187.39c.94.68,1.46,1.44-.05,2-2.8,1.03-4.69,3.23-6.75,5.18-3.25,3.07-6.98,3.37-10.92,1.95-2.66-.96-5.18-2.29-8.04-3.58,3.96-3.38,6.47-8.18,12.06-9.14,5.15-.89,9.6.6,13.7,3.59Z"
         style="fill: #05a101;"
         id="path148" />
      <path
         d="m326.02,81.35c3.56,4.64,3.13,9.2.15,13.83-1.43,2.21-2.93,4.36-4.62,6.86-2.35-3.35-5.28-5.96-6.67-9.6-2.34-6.1.09-14.32,5.27-18.46.95-.77,1.86-1.42,2.2.4.51,2.71,2.07,4.89,3.67,6.97Z"
         style="fill: #05a101;"
         id="path150" />
      <path
         d="m341.37,88.82c2.49,6.85,2.37,12.91-1,18.88-3.54,6.28-10.35,6.99-16.6,9.82,1.4-3.62.5-6.98.34-10.34-.31-6.73,3.6-10.34,9.17-12.74,2.9-1.25,5.85-2.36,8.09-5.62Z"
         style="fill: #05a101;"
         id="path152" />
      <path
         d="m382.29,75.44c1,.21,2.28.58,1.09,1.71-2.9,2.76-3.06,6.67-4.6,9.98-.63,1.34-1.36,2.63-2.21,4.25,3-1.17,3.41-.21,3.01,2.61-.28,1.94.97,4.07,1.39,6.14,1.41,6.85.02,10.14-5.87,14.03-1.78,1.17-3.37,2.54-4.98,4.38-1.14-2.87-1.51-5.82-2.32-8.43-2.02-5.93.07-11.02,4.68-15.88-5.06,1.04-9.6.58-14.41,1.91,2.3-6.06,1.94-12.64,7.44-16.84,5.06-3.84,10.6-5.12,16.78-3.86Z"
         style="fill: #05a101;"
         id="path154" />
      <path
         d="m364.71,114.12c1.95,6.94.13,12.72-5.55,17.25-1.39,1.11-2.65,2.44-3.16,4.27-1.19-3.93-3.67-7.32-4.96-11.19-.48-1.45-.61-2.82-.46-4.13.27-2.39,1.47-4.57,3.18-6.64,2.06-2.49,4.88-4.53,5.14-8.45,3.42,2.29,4.85,5.57,5.81,8.89Z"
         style="fill: #05a101;"
         id="path156" />
      <path
         d="m339.88,161.65c2.59,1.33,4.53,5.63,4.53,9.02,0,.65-.07,1.28-.23,1.84-.37,1.34-1.22.88-1.99.77-7.46-1.03-11.41-7.27-9.24-14.75,2.32,1.04,4.68,1.97,6.93,3.12Z"
         style="fill: #05a101;"
         id="path158" />
      <path
         d="m327.87,195.74c-.75,0-1.49.02-2.24,0-1.89-.07-2.89-.55-1.49-2.62.7-1.04.99-2.34,1.52-3.51,1.18-2.65,3.13-4.2,6.15-4.23,2.02-.03,4.05.04,6.02-.54,1.66-.49,1.67.34,1.47,1.68-.85,5.72-5.27,9.37-11.43,9.22Z"
         style="fill: #05a101;"
         id="path160" />
      <path
         d="m354.12,195.8c2.28-3.21,3.3-7.35,7.75-8.35,3.89-.87,7.81.81,11.68-.27.57,5.32-6.24,13.21-13.91,11.74-1.56-.3-3.13-.59-4.71-.8-.28-.04-.54-.04-.78,0l-.03-2.32Z"
         style="fill: #05a101;"
         id="path162" />
      <path
         d="m424,214.93c.2,1.77.1,3.34-.32,4.72-.85,2.79-3,4.86-6.58,6.41-3.16,1.37-3.45,1.18-3.72-2.28-.11-1.44-.08-2.81.19-4.04.52-2.4,1.93-4.31,4.93-5.37.68-.24,1.28-.74,1.88-1.17,2.58-1.88,3.24-1.57,3.62,1.73Z"
         style="fill: #05a101;"
         id="path164" />
      <path
         d="m369.79,152.19c2.01,2.32,3.95,4.7,6.14,7.32-2.76,1.08-5.26,2.16-7.84,3.04-7.26,2.47-16.68-2.22-19.32-9.58-.29-.82-1-2.16.72-2.04,3.95.28,7.36-1.88,11.21-2.19,3.74-.3,6.69.68,9.09,3.45Z"
         style="fill: #05a101;"
         id="path166" />
      <path
         d="m377.6,140.9c4.32,1.63,9.14,5.94,8.32,12.19-.19,1.46-.16,2.96-.25,4.67l-2.7.28c-.93-.54-1.91-.89-2.79-1.35-4.79-2.5-5.95-4.55-5.49-9.98.11-1.27.47-2.62.18-3.8-.48-1.93.03-2.49.87-2.49.53,0,1.21.23,1.86.48Z"
         style="fill: #05a101;"
         id="path168" />
      <path
         d="m407.09,101.45c2.24,6.97.88,11.51-4.79,15.99-1.81,1.43-4,2.42-5.3,4.49-.56.9-1.43.71-1.61-.2-.92-4.73-3.99-8.83-3.51-14.01.58-6.21,6.06-13.78,11.95-15.69,2.48-.8,1.67.91,1.6,2.06-.12,2.61.89,4.97,1.66,7.36Z"
         style="fill: #05a101;"
         id="path170" />
      <path
         d="m426.09,81.35c4.22,10.75.86,21.93-9.79,25.67-1.89.66-3.63,1.7-5.96,3.5.77-4.43-.53-7.98-.76-11.63-.27-4.48,1.27-8.22,5.11-10.87,3.34-2.32,7.39-3.66,9.82-7.27.74-1.11,1.31-.09,1.58.6Z"
         style="fill: #05a101;"
         id="path172" />
      <path
         d="m408.12,134.71c-.72.65-1.14,1.26-1.86.01-3.08-5.31-2.5-10.96,1.66-14.89.84-.79,1.85-1.42,2.88-1.95.8-.42,1.94-.43,1.92.77-.05,2.81,1.17,5.39,1.29,8.16.08,1.74-.96,3.01-1.69,4.04-1.33,1.53-2.82,2.63-4.2,3.86Z"
         style="fill: #05a101;"
         id="path174" />
      <path
         d="m435.51,104.15c1.4,5.86.16,10.75-3.27,15.15-3.67,4.69-9.4,4.37-14.67,5.99.62-3.82,1-7.47,1.86-11.01.75-3.1,3.08-4.96,6.1-5.96,3.31-1.08,6.77-1.76,9.98-4.17Z"
         style="fill: #05a101;"
         id="path176" />
      <path
         d="m416.48,140.67c4.37,2.52,6.09,7.89,4.3,12.48-.07.17-.14.34-.22.51-.5,1.1-.91,1.01-1.87.63-5.98-2.42-7.1-4.1-6.96-10.82,0-.1-.02-.21,0-.32.27-1.18-.71-2.82-.17-3.61.07-.11.17-.2.3-.27,1.51-.84,3.18.57,4.62,1.4Z"
         style="fill: #05a101;"
         id="path178" />
      <path
         d="m433.4,134.75c-.4.83-.82,1.66-1.26,2.5l-1.52-.8c1.69-3.35,3.09-6.91,3.97-10.96,1.01,3.1-.45,5.35-.48,7.73,3.47-7.43,10.1-8.85,16.09-7.94.73.11,1.26.26,1.55.52.45.4.35,1.04-.4,2.14-1.18,1.73-1.91,3.78-2.74,5.72-1.31,3.08-3.47,5.22-6.19,6.13-1.68.58-3.58.68-5.62.25-1.55-.33-2.87-.32-4.82.8.75-2.78,1.34-4.95,1.42-6.09Z"
         style="fill: #05a101;"
         id="path180" />
      <path
         d="m445.46,96.35c6.54,4.22,6.61,9.75,2.93,16.04-8.35-4.66-8.47-10.59-5.99-15.99.76-1.63,1.64-2.78,2.88-.31.05.09.1.21.18.26Z"
         style="fill: #05a101;"
         id="path182" />
      <path
         d="m445.27,156.17c-7.09,1.55-13.27,4.63-19.13,8.26l-1.3-2.09c1.03-.39,2.08-1.5,3.1-2.01,4.23-2.16,6.46-5.95,8.37-10.09,1.6-3.46,2.88-7.22,6.5-9.37-2.79,4.34-3.19,9.53-5.62,14.61,10.5-2.91,20.92-4.86,26.7-15.15.52-.92.85-1.94,1.3-2.91.9-1.97.26-3.13-1.51-4.45-3.67-2.75-7.23-5.59-10.6-8.63-6.92-6.24-13-13.28-17.37-21.85-.37-.73-.99-1.4-.66-2.62,2.23,1.85,3.26,4.42,4.86,6.52,2.71,3.58,5.65,6.92,8.94,9.95.6.56,1.28,1.5,2.11,1.18.97-.37.86-1.58,1-2.5.32-2.07-.36-4.2.45-6.81,1.74,3.3,1.69,6.42,1.66,9.65.38-.12.73-.13.89-.3,3.34-3.87,6.31-4.67,10.88-3.07,1.25.44.66,1.06.42,1.7-1.14,3.13-4.13,5.06-7.73,4.96-1.37-.04-2.73-.19-4.88-.35,3.03,3.44,6.26,5.72,9.33,8.12,4.39,3.43,4.42,3.37,5.58-1.91.62-2.85,1.29-5.69,2.33-8.47.71,5.07-.08,10-1.17,14.91-2.92,13.19-12.22,20.04-24.45,22.72Z"
         style="fill: #05a101;"
         id="path184" />
      <path
         d="m462.71,92.48c.55,3.31-.26,6.75.79,10.19-2.88-2.27-6.33-1.91-9.3-3-4.76-1.74-7.39-4.87-7.85-9.99-.26-2.92-.4-5.95-2.06-8.55-.72-1.14-.33-1.51.88-1.56,6.86-.3,16.03,3.81,17.54,12.91Z"
         style="fill: #05a101;"
         id="path186" />
      <path
         d="m477.3,82.99c3.07,3.86,4.36,8.27,3.93,13.18-.39,4.55-2.54,8.09-6.26,10.69-1.79,1.25-3.32,2.79-5.13,4.67-.61-3.87-2.47-6.95-3.49-10.33-1.36-4.5.27-8.15,3.37-11.43,2.11-2.24,4.94-3.85,5.93-7.14.41-1.36,1.27-.12,1.65.36Z"
         style="fill: #05a101;"
         id="path188" />
      <path
         d="m490.93,104.65c-2.15,2.93-1.63,6.3-2.09,9.5-.74,5.25-3.45,8.76-8.66,10.22-2.61.74-5.35,1.12-8.23,3.5.68-3.61.5-6.24.52-8.88.07-8.82,8.66-15.68,18.46-14.34Z"
         style="fill: #05a101;"
         id="path190" />
      <path
         d="m495.37,138.98c.8,4.92-1.2,8.3-5.38,10.68-1.96,1.12-4.13,1.85-5.53,3.2-.53-.9-.79-1.61-1.05-2.37.08,6.71-4.25,11.35-6.51,17.47-1.16-2.88-2.97-4.72-4.83-6.55-4.72-4.64-5.5-9.09-2.89-15.2,1.21-2.84,3.05-5.43,3.35-8.64.15-1.62,1.1-1.03,1.93-.51,3.45,2.14,5.88,5.17,7.74,9.46.19-1.98.14-3.39.49-4.7,1.47-5.61,5.18-9.07,10.68-10.73,1.51-.45,2.57-.6,1.9,1.63-.62,2.06-.23,4.21.1,6.26Z"
         style="fill: #05a101;"
         id="path192" />
      <path
         d="m440.51,170.32c.13,4.77-2.25,7.43-4.94,9.92-.72.66-1.03.24-1.36-.46-.63-1.33-1.24-2.68-2.03-3.91-1.57-2.43-1.53-4.75.12-7.09.54-.78.89-1.75,1.57-2.37,1.1-1.03.95-3.69,2.85-3.22,1.66.41,2.49,2.49,3.13,4.17.45,1.17.56,2.47.66,2.96Z"
         style="fill: #05a101;"
         id="path194" />
      <path
         d="m462.43,155.35c1.55.27,2.5.77,1.1,2.42-1.61,1.91-2.07,4.39-3.1,6.59-1.68,3.59-4.26,5.72-8.44,5.51-2.63-.13-5.27-.27-8.14.8,1.88-5.59,2.59-11.29,8.37-13.99,3.27-1.52,6.67-1.94,10.21-1.33Z"
         style="fill: #05a101;"
         id="path196" />
      <path
         d="m447.69,183.98c.51,1.74-1.26,3.42-2.7,4.71-1.69,1.52-7.11,1.94-9.05.89-.97-.53-.7-1.02-.39-1.77,1.43-3.47,3.75-4.99,7.86-4.92,1.3.37,3.78-.61,4.28,1.09Z"
         style="fill: #05a101;"
         id="path198" />
      <path
         d="m475.39,180.93c8.21-10.77,14.44-10.08,21.8-4.65-2.63,1.48-4.28,4.18-6.61,6.03-2.23,1.77-4.78,2.19-7.42,1.48-2.64-.72-4.99-2.27-7.77-2.86Z"
         style="fill: #05a101;"
         id="path200" />
      <path
         d="m506.9,161.85c2.58,3.8,2.69,7.69-.03,11.52-.12.17-.23.36-.34.53-1.17,1.88-1.95,4.66-3.62,5.4-1.98.86-2.95-2.21-4.25-3.78-3.06-4.43-4.35-9.43-1.9-14.92,1.27-2.86,3.07-5.24,6.17-7.02.49,3.36,2.28,5.77,3.97,8.27Z"
         style="fill: #05a101;"
         id="path202" />
      <path
         d="m518.13,180.59c.21,2.97-1.92,5-3.79,7.19-.25.3-.5.6-.74.91-.75.97-1.25.28-1.71-.33-1.68-2.22-3.26-4.84-3.2-7.64.04-1.71.68-3.5,2.28-5.3.28-.32.96-.88,1.4-1.67.43-.8-.22-2.38,1.28-2.2,1.44.16,2.23,1.84,2.96,3.14.96,1.69,1.4,3.54,1.52,5.9Z"
         style="fill: #05a101;"
         id="path204" />
      <path
         d="m534.51,150.47c4.3,9.54,1.65,20.98-6.97,24.9-2.67,1.22-5.27,2.59-8.29,4.88.82-3.78.26-6.55-.36-9.35-1.44-6.48.54-10.91,6.22-14.65,2.76-1.82,6.02-2.99,7.78-6.12.62-1.09,1.25-.48,1.62.34Z"
         style="fill: #05a101;"
         id="path206" />
      <path
         d="m537.95,177.9c2,.37,2.55,1.17.87,2.85-1.77,1.75-2.47,4.17-3.47,6.39-2.81,6.26-6.34,8.46-13.02,7.8-2.11-.21-4.16-.53-7.1.75,2.73-5.9,3.01-11.87,8.41-15.26,4.49-2.82,9.24-3.48,14.31-2.53Z"
         style="fill: #05a101;"
         id="path208" />
      <path
         d="m526.23,202.59c2.82,1.81,2.8,2.51-.32,4.17-4.9,2.62-9.9,1.55-13.51-4.17,1.39,0,2.45-.83,3.51-1.56,2.78-1.91,5.49-1.93,8.2.08.69.51,1.4,1.01,2.12,1.48Z"
         style="fill: #05a101;"
         id="path210" />
      <path
         d="m509.5,200.77c-5.96,4.62-12.66,5.04-19.55,4.21-.98-.11-1.95-.25-2.93-.41-10.48-1.7-20.72-4.61-31.19-6.42l.52-2.94c.61.09,1.14.01,1.51-.44.7-.86.18-2.22-.27-3.55l2.54-.52c.6,2.39,2.02,4.35,4.71,4.26,14.2-.53,27.51-3.89,38.8-13.13.62-.51,1.05-1.35,2.07-1.2-2.96,6.81-15.68,14.38-29.83,17.58,3.62,2,7.24,2.6,10.82,3.03,4.76.57,9.58.56,14.35.11,7.2-.67,11.13-5.56,14.17-11.49.28-.54.28-1.27.76-1.77.21-.23.52-.42,1-.52-1.07,5.36-3.55,9.7-7.48,13.2Z"
         style="fill: #05a101;"
         id="path212" />
      <path
         d="m339.44,226.39c.2.8-.06,1.18-1.11,1.5-1.85.56-3.75.69-4.86.81-2.62.17-4.13-.53-5.31-1.87-.85-.96-1.66-1.96-2.33-3.03-.72-1.15-2.73-2.11-2.22-3.19.26-.55.72-.91,1.28-1.17.94-.42,2.15-.53,3.21-.65,5.1-.58,9.28,2.13,11.16,7.06.08.2.14.38.18.54Z"
         style="fill: #05a101;"
         id="path214" />
      <path
         d="m367.31,230.4c-1.08-.04-1.45-.4-1.53-1.49-.27-3.54,1.7-6.43,5.17-7.4.92-.25,1.89-.41,2.74-.82,1.7-.82,2.09-.09,1.96,1.36.02,4.61-3.97,8.51-8.34,8.35Z"
         style="fill: #05a101;"
         id="path216" />
      <path
         d="m357.49,227.84c1.79,2.39,2.41,5.01,1.48,7.52-1.07,2.65-2.88,4.62-4.27,7.28-.59-1.59-1.42-2.64-2.26-3.69-3.56-4.44-2.48-11.66,2.17-14.95.75-.52,1.36-.84,1.47.47.12,1.27.67,2.4,1.41,3.37Z"
         style="fill: #05a101;"
         id="path218" />
      <path
         d="m349.37,263.46c1.12-10.74,8.65-12.32,17.64-11.66-1.52,9.69-6.34,12.89-17.64,11.66Z"
         style="fill: #05a101;"
         id="path220" />
      <path
         d="m336.69,236.95c5.42,2.27,8.84,9.71,6.88,15.2-.78,2.19-1.83,4.28-2.79,6.49-.38-.27-.62-.46-.88-.62-8.37-5.16-7.95-12.41-5.01-20.4.5-1.36.99-1.02,1.8-.67Z"
         style="fill: #05a101;"
         id="path222" />
      <path
         d="m308.04,259.33c.16,2.61-.14,5.09-1.28,7.44s-2.16,4.76-3.23,7.15c-1.52-1.17-2.87-2.37-4.07-3.6-8.22-8.44-8.73-17.96-.71-24.69,1.77,4.68,6.13,7.25,8.67,11.33l.62,2.37Z"
         style="fill: #05a101;"
         id="path224" />
      <path
         d="m301.63,281.12c2.16,2.12,3.93,4.65,6.12,7.27-3.33.69-6.07,2.14-9,2.98-3.58,1.03-6.9.28-9.67-2.47-2.17-2.15-4.02-4.67-6.88-6.06-.62-.3-.8-.6-.72-.92.07-.31.39-.64.76-.98,4.78-4.38,14.72-4.4,19.39.18Z"
         style="fill: #05a101;"
         id="path226" />
      <path
         d="m379.18,280.94c1.05.95,3.37.89,3.25,2.55-.11,1.58-2.04,2.26-3.43,3-5.14,2.72-8.89,1.76-14.26-3.71,1.43-.93,2.83-1.85,4.23-2.77,2.98-1.95,5.93-1.94,8.87.08.44.3.95.5,1.34.85Z"
         style="fill: #05a101;"
         id="path228" />
      <path
         d="m408.06,262.43c1.37.83,1.77,1.67-.07,2.32-1.74.61-2.6,1.97-3.59,3.4-3.01,4.34-5.74,8.98-11.53,10.39-3.55.86-6.74-.23-10.01-1.03-2.28-.55-4.51-1.14-7.68-.64,2.85-3.35,4.38-6.77,6.46-9.8,4.2-6.15,10.55-7.92,17.63-7.3,3.06.26,6.08,1.01,8.79,2.66Z"
         style="fill: #05a101;"
         id="path230" />
      <path
         d="m492.83,210.12c2.55,6.02,1.54,9.58-4.17,14.64-1.08-1.83-2.26-3.58-3.18-5.46-1.04-2.12-1-4.31.29-6.38.68-1.08,1.32-2.19,2.1-3.19.7-.89.65-2.76,1.83-2.76.06,0,.12,0,.18.01,1.4.2,2.36,1.77,2.95,3.14Z"
         style="fill: #05a101;"
         id="path232" />
      <path
         d="m468.5,203.57c9.39.73,14.47,10.87,14.13,18.07-.04.75-.2,1.71-1.26,1-2.83-1.9-6.14-1.7-9.25-2.12-6.12-.84-9.37-4.4-10.81-10.08-.65-2.55-.82-5.25-2.68-7.55,3.51.24,6.69.43,9.87.68Z"
         style="fill: #05a101;"
         id="path234" />
      <path
         d="m466.78,231.65c1.7,6.24-1.41,11.75-7.65,13.51-1.01.28-1.34.07-1.49-.85-.28-1.66-.58-3.32-.8-4.6-.02-3.01.77-5.13,3.24-6.45,1.3-.69,2.63-1.47,3.66-2.5,1.73-1.73,2.43-1.32,3.04.89Z"
         style="fill: #05a101;"
         id="path236" />
      <path
         d="m489.54,242.12c.82.61,1.31,1.34-.09,1.78-2.37.75-3.78,2.65-5.4,4.32-5.08,5.24-9.45,6.05-16.08,2.97-1.89-.87-3.8-1.71-6.31-2.09,4.37-5.1,7.72-10.73,15.12-11.04,4.78-.21,8.98,1.21,12.76,4.06Z"
         style="fill: #05a101;"
         id="path238" />
      <path
         d="m494.88,224.55c.42-5.78,4.91-12.32,10.32-14.31.72-.26,1.98-.97,1.9.47-.3,5.12,2.9,9.58,2.33,15.14,2.16-1.67,2.05-4.26,3.88-5.53-.11.45-.23.9-.36,1.34-.85,3.17-1.95,6.19-3.3,9.07l-2.03-.76c-3.05,2.62-5.41,4.6-7.72,6.64-.62.55-1.35,1.65-1.75.12-1.08-4.05-3.6-7.67-3.27-12.18Z"
         style="fill: #05a101;"
         id="path240" />
      <path
         d="m531.57,210.79c1.14.52.44,1.88.53,2.86.56,6.33-1.66,11.33-6.69,14.93-.31.22-.62.43-.94.64-.43.25-.86.5-1.78.73-2.81.85-6.28.81-9.95,2.45,1.91-3.56,1.25-7.01,2.13-10.23,1.03-3.8,3.23-6.31,6.97-7.48,1.56-.48,3.14-.93,4.73-1.35,1.01-.26,1.98-.62,2.89-1.16.74-.45,1.25-1.77,2.11-1.39Z"
         style="fill: #05a101;"
         id="path242" />
      <path
         d="m541.32,227.54c.74.2,1.44.36,2.12,1.18-2.55,2.34-3.67,5.57-5,8.69-2.08,4.88-5.83,7.03-11.05,7.06-2.71.01-5.41-.72-8.37.27,2.08-5.64,2.94-11.48,7.91-15.01.23-.13.46-.25.68-.37,5.37-2.81,9.58-2.96,13.71-1.82Z"
         style="fill: #05a101;"
         id="path244" />
      <path
         d="m527.35,250.3c3.15,1.93,3.11,2.76-.25,4.69-2,1.15-3.91,1.67-5.8,1.53-2.97-.22-5.9-2.05-9.11-5.63.96-.55,1.85-.99,2.66-1.48.27-.17.53-.34.79-.52,1.28-.9,2.52-1.46,3.75-1.69,2.28-.41,4.5.33,6.67,2.18.4.34.84.64,1.29.92Z"
         style="fill: #05a101;"
         id="path246" />
      <path
         d="m563.46,227.99c2.58,7.83-.24,20.53-10.1,23.67-3.03.97-6.05,1.98-9.53,3.12,1.65-4.67.13-9.19,1.14-13.62.71-3.17,2.36-5.47,5.01-7.21,3.88-2.54,8.91-2.99,12.18-6.71.74-.85,1.08.07,1.3.75Z"
         style="fill: #05a101;"
         id="path248" />
      <path
         d="m581.54,258.86c-3.62-.1-6.31,1.98-9.21,3.61-4.53,2.55-8.94,2.45-13.16-.77-.54-.41-1.15-.74-1.64-1.24-1.57-1.74-3.48-3.01-6.43-3.79,4.04-1.39,6.49-4.15,9.71-5.7,6.88-3.33,17.66.65,20.73,7.89Z"
         style="fill: #05a101;"
         id="path250" />
      <path
         d="m565.65,272.74c.35,1.67,1.22,3.51-2.1,2.55-1.85-.54-4.02-.29-5.99-.02-1.37.19-2.63.25-3.78.18-4.5-.26-7.48-2.55-9.73-7.44-.97-2.11-1.83-4.25-3.67-6.18,6.6-1.5,12.92-3.16,18.68,1.19,3.02,2.71,5.71,5.64,6.59,9.72Z"
         style="fill: #05a101;"
         id="path252" />
      <path
         d="m517.61,263.89c3.82.51,4.08,1.1,1.85,4.44-3.1,4.65-8.03,5.55-15,2.61.85-1.27,1.59-2.3,2.26-3.38,2.47-3.98,4.41-4.86,9.01-4.05.63.11,1.25.3,1.88.38Z"
         style="fill: #05a101;"
         id="path254" />
      <path
         d="m437.83,285.41c1.59-5.59,5.05-9.46,10.25-11.89,1.03-.47,2.06-.64,1.76.96-.62,3.28,1.33,5.93,1.98,9.04-.02-5.8,5.45-6.53,8.52-9.43.77-.73,1.27.31,1.41,1.06.32,1.67.57,3.35,1,5.93.55-7.31,6.05-7.12,11.14-8.39l2.15.57c-.13.39-.28.79-.38,1.19-1.4,5.9-3.38,8.59-7.93,9.61-1.28.29-2.75.45-4.47.51-1.42.05-2.42.24-3.44,1.5-1.69,2.09-4.31,2.9-6.92,3.92-.15-1.14-.27-2.07-.38-3-.06,7.53-7.3,9.32-11.12,14.18-1.68-5.34-5.24-9.89-3.57-15.76Z"
         style="fill: #05a101;"
         id="path256" />
      <path
         d="m496.45,285.93c1.63.08,1.97.64,1.24,2.22-3.89,8.38-15.69,12.19-23.73,7.52-2.03-1.18-3.99-2.43-6.92-3.07,2.93-1.9,4.6-4.1,6.5-6.09,4.41-4.64,9.22-5.57,15.06-3.1,2.54,1.07,5.01,2.37,7.85,2.52Z"
         style="fill: #05a101;"
         id="path258" />
      <path
         d="m512.82,289.04c.06.74.29,1.35-.88,1.58-5.73,1.08-9.65-1.11-11.63-6.64-.18-.5-.27-1.03-.49-1.5-1.48-3.04-1.33-3.28,2.13-3.3,5.72-.05,10.46,4.25,10.87,9.86Z"
         style="fill: #05a101;"
         id="path260" />
      <path
         d="m533.7,268.61c3.6,7.38,2.67,17.39-5.22,22.61-2.69,1.79-5.93,2.63-8.92,5.24.09-4.01-.48-7.12-.99-10.26-.84-5.09,1.2-9,5.39-11.93,2.8-1.94,6.27-2.96,8.18-6.15.63-1.05,1.24-.16,1.56.49Z"
         style="fill: #05a101;"
         id="path262" />
      <path
         d="m557.34,278.07c1.59.4,2.27.93.89,2.48-1.79,2.01-2.58,4.61-3.65,7.03-2.38,5.41-5.28,7.33-11.1,7.3-2.84-.02-5.69-.42-9.08.85.22-.43.43-.87.62-1.3h.01c2.34-5.27,2.89-10.79,7.99-13.96,3.42-2.13,6.95-3.15,10.69-2.95,1.19.06,2.4.24,3.63.55Z"
         style="fill: #05a101;"
         id="path264" />
      <path
         d="m533.86,311.16c-2.65,1.85-3.6,4.67-4.68,7.4-2.22,5.66-6.09,8.78-12.44,8.35-2.4-.16-4.83-.03-7.24-.03,2.67-16.89,14.95-19.65,24.36-15.72Z"
         style="fill: #05a101;"
         id="path266" />
      <path
         d="m559.28,312.92c1.68-.23,1.88.52,1.44,1.81-2.86,8.49-12.75,17.02-23.88,12.77-2.46-.94-5.06-1.51-8.09-2.41,2.82-1.9,3.83-4.55,5.4-6.78,4.64-6.64,9.26-8.41,16.99-6.35,2.68.71,5.36,1.33,8.14.96Z"
         style="fill: #05a101;"
         id="path268" />
      <path
         d="m541.73,344.69c.23.73.32,1.56-.74,1.09-3.81-1.72-7.44.02-11.08.52-6.59.9-10.57-.76-14.2-6.29-1.79-2.75-2.88-6.03-6.6-8.15,4.71-.15,8.26-2.06,12.11-2.54,6.68-.85,11.95,1.94,16.18,6.92,2.1,2.46,3.38,5.38,4.33,8.45Z"
         style="fill: #05a101;"
         id="path270" />
      <path
         d="m470.19,322.85c-.28,6.4-5.94,11.13-12.18,10.36-1.05-.13-1.09-.56-1.05-1.44.34-6.47,6.02-11.59,12.24-11,1.66.16.84,1.37.99,2.08Z"
         style="fill: #05a101;"
         id="path272" />
      <path
         d="m499.55,359.04c1.37.82.2,1.3-.5,1.76-6.64,4.38-19.89,3.83-25-5.87-1.23-2.35-2.71-4.58-4.35-7.31,3.67.21,6.79-.99,10.02-1.66,6.07-1.26,10.57,1.25,13.9,6.24,1.69,2.52,3.18,5.19,5.93,6.84Z"
         style="fill: #05a101;"
         id="path274" />
      <path
         d="m492.38,335.03c.47.68,1.52,1.76-.27,2.09-3.11.56-5.67,2.3-8.38,3.72-4.37,2.29-8.36,1.53-12.2-1.24-2.46-1.78-4.32-4.28-7.56-5.68,5.65-2.55,9.84-7.38,16.56-6.11,4.96.93,8.96,3.09,11.85,7.22Z"
         style="fill: #05a101;"
         id="path276" />
      <path
         d="m452.81,316.06c3.54,9,4.59,17.34-4.38,22.55-.74.43-1.53.83-2.4,1.21-1.84-5.37-5.28-10.88-1.2-16.98,2-2.98,4.43-5.28,7.38-6.54.2-.09.4-.16.6-.24Z"
         style="fill: #05a101;"
         id="path278" />
      <path
         d="m471.69,361.41c.39,1.04.71,2.1,1.23,3.67-4.73-1.83-8.95-.1-13.24.41-5.02.6-8.92-1.22-11.79-5.27-1.16-1.63-2.24-3.33-3.13-5.1-.78-1.56-2-2.62-3.34-3.77,2.42-.23,4.69-.74,6.81-1.62,9.51-3.95,19.89,2.1,23.46,11.68Z"
         style="fill: #05a101;"
         id="path280" />
      <path
         d="m435.62,384.33c-8.33-1.76-14.38-11.32-12.45-19.57.63-2.69,1.76-5.28,1.85-8.28,2.78,2.43,6.02,3.9,8.88,5.91,4.3,3,5.09,7.36,4.38,12.22-.42,2.82-1.28,5.6-.72,8.52.37,1.91-.93,1.42-1.94,1.2Z"
         style="fill: #05a101;"
         id="path282" />
      <path
         d="m420.15,326.08c3.68.9,7.22,2.51,11.24,1.66-2.88,12.61-14.87,16.4-30.25,9.66,2.16-1.81,3.89-3.63,5.3-5.79,3.26-4.98,7.83-6.95,13.71-5.53Z"
         style="fill: #05a101;"
         id="path284" />
      <path
         d="m396.13,361.69c1.47,9.27-7.64,18.94-18.07,19.6-1.28.09-2.1-.23-1.17-1.58.86-1.25.84-2.6.88-3.99.08-2.61.03-5.23.24-7.84.42-5.34,3.37-8.85,8.21-10.93,3.2-1.37,6.76-1.96,9.55-4.43-.58,3.19-.11,6.22.36,9.17Z"
         style="fill: #05a101;"
         id="path286" />
      <path
         d="m409.34,368.93c6.48,4.34,8.32,8.8,6.43,16.36-.73,2.9-1.35,5.8-1.07,8.79.15,1.59-.22,1.83-1.73,1.32-11.25-3.82-16.43-14.54-12.27-25.63.74-1.99.81-4.11,1.55-6.29,1.79,2.76,4.66,3.83,7.09,5.45Z"
         style="fill: #05a101;"
         id="path288" />
      <path
         d="m395.48,381.83c6.11,14.06.25,23.47-12.16,26.28.76-3.29.56-6.22,0-9.16-1.11-5.88.63-9.77,5.79-12.92,2.16-1.33,4.62-2.16,6.37-4.2Z"
         style="fill: #05a101;"
         id="path290" />
      <path
         d="m180.76,465.94c11.86-.73,23.55-2.43,35.1-5.03l.46,1.99c-6.78,1.64-13.53,3.37-21.07,5.25,5.94,1.75,11.08,3.27,16.22,4.78-.46.13-.92.24-1.37.33-5.11,1.04-10.01-.12-14.75-1.55-10.13-3.07-20.2-2.21-30.29-.22-6.02,1.18-11.98,2.63-18.48,5.31,2.73.32,4.99.63,7.14.87l-.3,2.8c-2.15-.22-4.33-.33-6.53-.35-6.12-.04-11.97,1.65-17.89,2.9-10.81,2.29-21.59,4.88-32.79,4.14-1.94-.12-3.9-.27-5.58-1.66,4.51-.45,9-.75,13.46-1.33,14.33-1.87,27.93-6.45,41.45-11.24,11.42-4.04,23.19-6.25,35.22-6.99Z"
         style="fill: #05a101;"
         id="path292" />
      <path
         d="m193.06,493.35c-12.66-6.22-25.59-11.5-39.64-12.88l.3-2.8c.72.08,1.42.15,2.12.22,13.12,1.22,25.21,5.73,36.93,11.46.66.33,1.33.66,2.01.96q5.49,2.45,2.22,7.67c-2.44,3.88-5.44,7.32-8.55,11.02,1.63.23,2.59-.62,3.63-1.22,5.57-3.23,10.98-6.73,16.27-10.39,2.23-1.54,4.44-3.1,6.63-4.69,4.48-3.24,9.34-4.36,14.73-3.68.28.79-.37,1.01-.78,1.06-7.03.88-12.21,5.18-17.49,9.33-6.6,5.18-13.02,10.65-21.08,13.57-6.47,2.33-13.04,2.72-19.78,1.3-9.39-1.97-18.88-3.11-28.48-3.23-1.29,0-2.8.4-3.95-1.59,7.24.32,14.08-1.29,21.04-.49,5.06.59,10.13,1.16,15.2,1.67,5.07.52,9.08-1.57,12.49-5.16,2.73-2.87,4.79-6.22,6.96-9.5.91-1.37.55-1.98-.78-2.63Z"
         style="fill: #05a101;"
         id="path294" />
      <path
         d="m268.55,535.88c-10.73-6.31-22.34-6.01-34.12-5.02-5.6.48-11.02,2-16.67,2.54,2.92-2.09,6.32-3.08,9.66-4.09,6.96-2.11,14.22-2.53,21.4-3.33,1.92-.22,3.81.19,5.69.56,10.9,2.12,15.36.16,20.74-9.37,1.54-2.72,2.66-5.68,4.17-8.95l2.44.71c-2.61,9.01-7.69,16.59-16.7,22.15,5.37,2.77,10.28,7.01,17.18,4.64-1.04,2.5-3.72,3.74-6.67,2.91-2.44-.7-4.95-1.47-7.12-2.75Z"
         style="fill: #05a101;"
         id="path296" />
      <path
         d="m266.05,465.73c-16.14-8.61-32.88-6.9-49.73-2.83l-.46-1.99c2.65-.61,5.3-1.25,7.94-1.95,10.63-2.8,21.3-4.07,32.09-.81,3.18.96,6.19,2.28,8.77,4.41,1.01.84,2.27,1.56,2.35,3.25-.38-.03-.72.05-.96-.08Z"
         style="fill: #05a101;"
         id="path298" />
      <path
         d="m279.42,508.22c-16.09,5.81-31.81,10.55-48.76,8.44,19.73-1.36,38.47-5.24,53.32-20.06-.33,4.34-1,8.47-2.12,12.33l-2.44-.71Z"
         style="fill: #05a101;"
         id="path300" />
      <path
         d="m317.52,477.06c-1.43-.14-2.93.35-4.35-.38,4.65-4.19,13.23-1.39,15.08,4.98.28.97.52,1.94.73,2.93.39,1.81.69,3.65.99,5.48.64,3.94,3.05,6.19,6.64,7.41,5.43,1.85,10.85,3.69,16.15,5.92,6.58,2.78,11.26,7.46,14.44,13.77.33.66.74,1.3,1,1.99.34.91.72,1.77,1.13,2.58l-2.81.98c-3.44-6.43-7.14-12.22-14.16-15.47-5.12-2.38-10.54-3.97-15.7-6.2-5.99-2.59-10.62-6.32-10.65-13.63-.01-1.05-.33-2.1-.52-3.14-.79-4.5-3.37-6.79-7.97-7.22Z"
         style="fill: #05a101;"
         id="path302" />
      <path
         d="m460.09,516.8c-6.34,6.77-14.44,10.69-22.65,14.44-13.15,6.01-27.26,5.81-41.26,6.6-12.96.73-24.5-2.51-34.98-10.29-5.6-4.16-12.64-4.16-19.3-4.48-6.56-.31-13.14-.07-19.74-.74,9.33-2.4,18.8-2.92,28.4-3.08-4.17-3.29-9.02-4.93-13.9-6.53-8.36-2.74-17.05-4.62-24.46-9.77-3.7-2.57-6.58-5.89-9.61-10.47.03,8.5.64,16.27-5.33,22.28-1.05-.65-.41-1.19-.17-1.7,2.3-4.93,3.33-9.96,2.39-15.47-.19-1.08-.29-2.16-.34-3.24-.16-4.27.69-8.51,1.78-12.72,1.46.2,1.59,1.36,1.94,2.32,4.14,11.22,12.35,17.92,23.5,21.63,7.15,2.37,14.51,4.14,21.32,7.54,5.41,2.7,9.78,6.72,14.24,10.66,2.22,1.96,4.5,3.88,8.06,5.51-1.2-2.21-2.32-4.43-3.46-6.57l2.81-.98c3.91,7.83,10.68,11,19.91,11.15,9.57.16,19.11.12,28.66-.31,9.65-.44,18.43-3.91,27.03-7.92,5.16-2.4,10.16-5.11,15.16-7.86Z"
         style="fill: #05a101;"
         id="path304" />
      <path
         d="m357.81,484.48c3.67.05,7.33-.27,11.01.16,6.45.75,9.64,5.17,12.09,10.51,1.41,3.08,2.77,6.18,4.93,8.87,2.26,2.8,5.09,4.31,8.63,4.86,4.84.75,9.66,1.7,14.28,3.6-5.81.12-11.6,1.17-17.32.03-4.87-.98-8.29-4.08-10.42-8.6-1.62-3.45-3.19-6.93-4.96-10.31-1.87-3.6-4.89-5.76-8.94-6.46-3.12-.53-6.21-1.19-9.31-1.79,0-.29.01-.58.01-.87Z"
         style="fill: #05a101;"
         id="path306" />
      <path
         d="m347.56,447.7c5.79-1.75,11.52-3.7,17.47-4.95,9.79-2.05,18.84.04,27.4,4.6,6.64,3.54,13.04,7.1,20.72,8.49,10.15,1.84,19.06,7.23,27.52,12.95,7.63,5.16,16.04,7.95,24.9,9.22,17.72,2.54,34.49,8.17,51.11,14.46.36.14.68.36.95.78-2.75.16-5.28-.72-7.84-1.39-17.16-4.54-34.32-9.13-52.06-10.84-10.42-1-20.36,1.23-29.71,5.71-8.18,3.91-16.44,6.95-25.7,6.19-4.73-.38-9.09-1.57-12.56-5.17,1.54.32,3.1.56,4.61.98,9.58,2.69,18.53,1.21,27.48-3.04,7.71-3.67,15.71-6.82,24.78-8.74-6.8-4.39-13.41-7.71-19.8-11.4-10.4-6.02-21.64-6.21-33.12-5.6-9.25.49-18.45,1.44-27.66,2.35-.27.03-.58.2-.9.11-.19-.06-.39-.22-.59-.57,11.37-2.9,22.85-4.53,34.57-5.92-4.43-2.64-8.79-5.28-13.51-7.32-9.03-3.9-18.14-3.72-27.44-1.03-5.17,1.5-10.47,2.49-16.62,2.46,2.08-2.03,4.21-1.79,6-2.33Z"
         style="fill: #05a101;"
         id="path308" />
      <path
         d="m308.23,273.17c-.55,6.04,3.51,10.18,4.71,15.37.07.31.11.64.08.95-.19,2.13.87,2.35,2.52,1.66,2.7-1.13,5.39-2.28,8.29-3.52-3.4-4.24-6.38-8.75-9.02-13.48-2.65-4.74-4.63-9.78-6.77-14.82l-.62-2.37c-2.39-8.25-3.57-16.63-4.07-25.73-11.59,12.12-19.75,25.67-22.95,41.71-.56,2.84-1.09,5.69-1.56,8.54-2.08,12.55-3.02,25.21-.71,38.01,1.84-2.63,2.91-5.52,4.75-7.97,1.86-2.48,3.95-4.73,6.33-6.72,4.52-3.78,9.56-6.7,14.81-9.32,3.65-1.82,5.56-4.35,5.64-7.02.08-2.41-1.31-4.92-4.22-7.13-2.38-1.8-4.73-3.65-6.61-5.98-1.38-1.71-3.05-3.37-3.12-6.21.75.7,1.44,1.42,2.12,2.14,2.03,2.13,3.89,4.22,6.21,5.8.93.64,2.02,1.92,3.03,1.4,1.26-.65.05-2.06.06-3.15,0-.57-.4-1.24,1.1-2.16Zm90.51,19.81c8.74-3.43,14.49-9.75,21.61-14.08-.79,1.93-2.47,2.91-3.94,4.12-1.72,1.42-4.01,2.63-4.57,4.76-.84,3.19-3.21,4.03-5.68,5.3-7.06,3.64-12.84,8.68-15.92,16.25-.73,1.79-1.15,3.7.78,5.23,2.09,1.65,3.63.22,5.1-.91,9.99-7.7,18.99-16.42,26.45-26.6,5.1-6.96,7.7-14.67,6.89-23.6-.52-5.79.17-11.69.38-17.53.09-2.58,1.87-6.53.32-7.41-2.42-1.37-5.66.88-8.18,2.39-8.53,5.11-17.62,8.84-26.98,12.1-6.67,2.32-12.37,5.72-14.56,13.42-1.12,3.91-4.24,7.04-7.57,9.67-3.71,2.93-7.94,4.94-12.04,7.17-4.2,2.28-6.95,5.58-6.98,10.6-.02,2.01.04,4.05.34,6.04,1.1,7.18,1.67,14.32.34,21.56-.99,5.4-1.57,10.88-2.38,16.7,7.4-2.42,13.34-6.31,18.27-11.77,7.62-8.45,13.27-18.23,18.33-28.29,7.45-14.77,18.23-26.55,31.13-36.61.53-.41,1.07-1.1,2.14-.16-8.94,9.35-16.61,19.61-23.28,31.65Zm-216.45-142c-1.48.62-1.88,1.91-2.01,3.36-.47,5.19-1.09,10.36-.21,15.57.69,4.05,2.01,7.79,4.74,10.96,8.52,9.9,18.31,18.66,26.02,29.31,6.03-6.33,10.01-10.68,5.59-19.26,3.43,1.43,5.2,7.25,3.52,11.62-.11.3-.28.58-.38.88-.41,1.17-2.02,2.4-1.22,3.36.9,1.09,2.78.67,4.24.45,5.06-.78,8.54-3.49,10.15-8.45.18-.54-.06-1.31.74-1.57,1.01,3.06-.96,7.34-4.48,9.78-1.52,1.05-3.25,1.47-5.02,1.91-7.4,1.83-9.58,6.63-6.15,13.38.62,1.23,1.3,2.43,1.93,3.66,3.09,6.05,7.89,9.67,14.59,11.21,12.31,2.85,24.12,6.94,33.68,15.73,1.3,1.19,1.9.72,2.59-.57,1.86-3.48,4.38-6.52,6.57-9.79,3.51-5.24,4.12-11.27,3.84-17.4-.05-.98-.69-1.99-1.24-2.88-1.64-2.61-3.51-5.07-5.67-7.28-5.85-6-12.16-11.47-18.62-16.99-2.97-3.01-6.38-6.06-8.47-9.85-4.37-7.91-11.04-13.24-17.99-18.56-8.28-6.33-13.93-14.59-15.7-25.08-.76-4.48-2.77-8.16-5.9-11.4-3.75-3.91-7.97-7.39-11-11.97-.63-.94-1.35-1.82-1.27-3.19,3.98,4.31,8.86,7.37,13.7,10.78.91-1.92-.92-3.62.17-5.75,3.84,7.64,5.54,15.6,7.85,23.52,4.22-11,8.14-22.02,4.86-34.39,1.72,1.01,1.99,2.68,2.4,4.22,2.31,8.6.31,16.86-2.12,25.06-.6,2.02-1.38,4.06-2.44,5.87-1.82,3.11-1.26,5.76.7,8.53,4.78,6.73,10.56,12.39,17.56,16.95-1.59-6.71-3.64-13.23-4.51-20.08,4.36,10.29,7.85,20.97,14.03,30.44-.46-1.73-.86-3.47-1.18-5.21l2.93-.5c.9,4.96,3.14,9.57,6.52,13.92,5.8,7.45,12.96,13.45,20.6,19.27-12.07-20.53-13.53-41.63-5.72-58.86l1.91.46c-.73,2.98-1.54,5.93-2,8.98-.14.95-.39,1.86-.14,3.02,2.26-.6,3.73-2.73,6.95-3.35-3.66,4.76-6.76,9.05-7.44,14.56-.68,5.59.03,10.74,3.74,15.84,1.76-6.47,6.9-7.56,12.12-8.74-3.41,2.78-5.77,6.12-6.4,10.53-.48,3.38-.07,6.48,1.91,9.41,5.38,7.96,9.66,16.33,8.59,27.06,4.45-2.89,8.22-6.18,12.39-8.91.59-3,.66-3.6.71-4.08.21-1.77.21-1.83.22-1.88.39-4.21,1.81-9.59,3.35-15.01,2.02-7.12,4.76-14,7.97-20.74.12,5.9-2.94,11.35-2.66,17.81,6.78-4.25,10.72-9.86,11.15-17.3.69-12.27-.54-24.43-3.24-36.44-.42-1.87-1.44-3.07-3.03-4.22-9.75-7-14.01-16.98-15.05-28.61-.01-.16.19-.35.58-1.03.47,2.5.75,4.6,1.27,6.64,2.18,8.45,6.75,15.28,13.97,20.27,1.65,1.15,2.7,1.31,2.46-1.26-.11-1.27-.11-2.56-.07-3.83.09-3.22-.45-6-3.52-7.96-1.89-1.21-3.35-3.1-3.82-5.53,1.55,1.41,3.33,2.41,5.01,3.55,1.65,1.12,1.99.29,2.15-1.13.27-2.36.15-4.8,1.31-7.06.08,15.39,2.41,30.54,4.19,46.69,2.2-5.12,5.75-7.46,9.98-8.94,1.71-.59,1.65-2.06,1.85-3.38,1.27-8.21,1.21-16.32-2.09-24.14-.11-.27-.09-.59-.14-.96,2.11,1.62,2.51,2.62,4.67,11.5,2.32-1.16,3.05-3.43,3.94-5.45,2.28-5.14,2.99-10.66,3.18-16.18.3-8.58,1.18-17.22-1.15-25.7-.07-.27.07-.61.2-1.58,2.35,3.89,2.56,7.75,3.15,11.49.23,1.46.25,2.97.28,4.46.06,2.12,1.15,2.11,2.36,1,1.61-1.49,3.02-3.2,4.95-5.29-.57,4.14-2.77,6.59-5.22,8.72-1.54,1.35-2.01,2.72-1.99,4.67.04,3.47.02,7-.43,10.4-.56,4.28-1.83,8.37-4.56,11.92-3.89,5.07-4.96,10.2-4.39,16.61,6.34-2.95,11.54-7.11,16.77-11.38.18-.16.35-.32.53-.49,4.44-4.02,8.29-8.66,12.25-13.21.67-.77,1.04-1.88,2.85-2.45-3.29,5.96-7.67,10.44-11.51,15.35,15.92,2.54,29.35-1.54,39.56-14.37.97,1.27.19,1.78-.18,2.29-6.11,8.36-13.6,14.32-24.27,14.87-.46.03-.93.05-1.41.05-4.79.03-9.57.36-14.36.36-1.94,0-3.46.58-4.92,1.8-5.71,4.8-11.81,8.95-18.65,12.09-2.52,1.15-4.57,2.69-6.16,4.61-3.34,4.02-4.61,9.71-3.72,16.94,1.13,9.19-1.63,16.73-8.13,23.1-.98.97-1.83,2.09-2.89,2.97-4.8,4.02-6.29,9.33-6.23,15.29,0,.18.08.35.22.46.14.12.32.17.5.14.35-.06.67-.33.97-.5,10.18-5.48,21.06-9.08,32.14-12.17,2.34-.65,5.68-.42,6.44-3.34,1.08-4.16,2.1-8.52-.55-12.66-2.44-3.82-5.77-6.8-9.01-9.87-.75-.71-1.83-1.12-2.14-2.95,4.38,2.81,8.02,5.86,12.19,9.21-1.03-5.1-3.56-9.26-3.7-14.11-.02-.39-.01-.79.01-1.2,1.98,4.19,4.16,8.29,5.87,12.59,1.71,4.33,1.9,9.01,1.97,13.8l.03,2.32c-.84.13-1.41.72-1.43,1.71-.02,1.67,1.4.99,2.15.91,7.5-.8,14.98-1.9,22.54-2.07,2.97-.07,5.95.12,8.92.28,1.13.06,2.29.28,3.32,1.81-8.17-.78-15.37,1.96-22.76,3.53-.84.18-2.19.12-2.39,1.12-.22,1.08,1.1,1.42,1.84,1.95,3,2.16,6.42,3.24,10.06,3.71,1.12.15,2.23.37,3.29.84-5.33,1.13-10.69.49-15.08-2.33-4.97-3.21-9.38-2.86-14.59-1.09-8.7,2.96-17.38,5.9-25.67,9.78-4.1,1.9-8.1,4.03-11.96,6.5-2.49,1.59-3.14,3.35-2.74,6.06,1.51,10,5.13,19.28,9.67,28.23,3.18,6.27,7.02,12.15,11.07,17.89,1.16,1.64,2.07,2.5,3.56.48.12-.16.34-.25.49-.4,1.51-1.49,3.67-2.73,4.37-4.54.92-2.39-2.28-2.95-3.46-4.48-3.75-4.87-5.75-10.4-6.85-16.3-.79-4.25-1.22-8.57-1.8-12.86l.75-.15c.95,3.83,1.79,7.7,2.86,11.5,1.23,4.39,2.52,8.8,5.07,12.67.81,1.23,1.74,2.45,2.85,3.4,2.54,2.18,4.34,1.59,5.45-1.58,1.62-4.58,1.9-9.37,2.22-14.14.17-2.54.06-5.1.09-7.66.05-5.05.68-10.22-3.93-14.04-.7-.58-1.3-1.56-1.51-2.7-.04-.22-.07-.44-.08-.67,1.34.18,1.58,1.23,2.17,1.91.77.88,1.44,2.13,2.68,2.06,1.84-.09-.23-2.2,1.29-2.74,1.13,2.24.86,4.73,1.09,7.1.48,5.07,1.08,10.16.42,15.28-.09.68-.92,1.52-.08,2.03.91.55,1.78-.05,2.57-.7,3.07-2.52,5.7-5.45,7.73-8.84,1.55-2.6,3.16-5.21,3.79-8.24.39-1.21.81-2.91,2.46-3.92-1.35,9.4-4.41,17.92-11.99,23.34-3.8,2.71-4.88,5.48-5.56,9.55-1.25,7.5-4.34,14.23-10.5,19.11-1.44,1.14-1.58,2.07-.29,3.36.82.81,1.49,1.77,2.58,3.1,2.44-7.31,7.76-11.48,14-14.7,1.51-.78,3.07-1.46,4.59-2.22,7.98-3.98,13.44-9.9,14.9-19.01.54-3.35,1.41-6.65,1.92-10.01,1.47-9.78,7.46-16.67,14.43-22.98,3.81-3.46,6.47-7.66,7.02-12.87.88-8.17-4.38-15.07-13.17-17.38-2.92-.77-5.91-1.37-8.73-2.45-.94-.36-1.86-.77-2.76-1.26-3.07-1.68-5.84-3.69-7.59-7.98,2.64,1.91,4.61,3.23,6.47,4.69,4,3.14,8.94,3.12,13.56,4.15,4.97,1.12,9.12,3.33,11.92,7.79-1.39-4.85-4.22-8.95-6.64-13.22-1.97-3.47-3.47-7.09-4.2-10.95-.66-3.55-2.43-6.26-4.97-8.66-1.34-1.27-2.69-2.62-3.32-4.93,3.38,1.16,5.31,4.35,9.21,4.62-.69-1.21-1.57-1.93-2.5-2.47l2.7-.28c1.47-.51,1.47-1.86,2.01-2.75,3.23-5.31,8.03-9.03,12.77-12.8,3.5-2.78,7.17-5.34,10.29-8.57.65-.57,1.29-1.15,1.9-1.77.55-.56,1.07-1.15,1.54-1.8.19-.27.38-.56.63-.78.23-.2.52-.35.82-.42.11-.03.21-.05.32-.07-1.28,3.99-4.02,6.66-6.58,9.37-4.02,4.24-8.39,8.14-12.05,12.73-5.4,6.77-7.42,13.86-2.92,22,1.99,3.58,3.49,7.42,5.31,11.35,1.45-2.54,2.68-4.69,5.97-9.39-2.45.45-3.05,1.69-4.42,2.32.03-3.87-2.29-7.02-2.54-10.76-.23-3.44,1.3-5.94,3.74-8.07,2.14-1.87,4.6-3.39,5.96-6.08.7-1.37,1.24-.07,1.59.44,3.64,5.18,3.57,12.43-.15,17.66-.21.29-.42.57-.53.98,2.97-2.29,6.08-4.28,9.26-6.16.8-.47,1.24-.97,1.27-1.97.1-3.47.83-6.72,1.94-9.84,1.43-4,3.51-7.77,5.76-11.47,1.08-1.79,2.11-3.59,3.06-5.46l1.52.8c-3.07,5.89-7,12.24-8.88,19.53-.47,1.8-1.57,4.22-.05,5.38.53.4,1.08.4,1.63.18l1.3,2.09c-3.43,2.11-6.75,4.42-10.08,6.71-5.88,4.05-9.64,10.1-12.44,16.68-.38.89-.92,1.82-.5,2.74,1.62,3.52,1.63,7.43,2.7,11.31,15-4.29,26.13-13.55,35.2-25.76-2.02,6.35-6.53,11.02-11.01,16.31,7.05.69,13.22-.77,19.13-3.51,2.2-1.02,4.19-2.49,6.33-3.66,1.41-.78,1.98-1.9,2.42-3.47,1.89-6.9,6.5-11.97,11.77-16.56-3.46,4.93-7.2,9.7-8.96,16.21,5.8-2.13,10.38-5.43,14.62-9.2,4.22-3.74,7.48-8.21,9.25-13.7-.37,6.09-3.49,10.77-7.36,15.03-4.2,4.61-9.14,8.34-14.76,10.97-2.87,1.35-2.91,3.33-2.43,5.7.03.16.07.32.11.47l-2.54.52c-.17-.52-.33-1.04-.4-1.52-.23-1.57-.82-1.74-2.06-.99-2.14,1.29-4.3,2.55-7.15,4.23,2.3.61,3.7,1.1,5.13,1.34,1.01.17,2.23.78,3.24.93l-.52,2.94c-.95-.16-1.9-.32-2.85-.46-17.3-2.62-32.04,2.53-44.47,14.32-9.99,9.48-17.84,20.52-21.69,34.02-.35,1.24-.7,2.44-.2,4.29,3.76-2.53,8.64-2.51,11.89-5.09,4.02-3.19,7.07-7.71,7.61-13.23.49-4.94,1.86-9.5,5-13.49.29.26.56.47.56.51-2.45,3.99-2.49,8.39-2.52,12.89-.03,4.36-2.46,8.03-4.8,12.52,6.18-2.02,11.42-4.14,15.28-8.78,3.77-4.53,5.12-10.03,6.29-15.65,1.28,5.49-.06,10.58-2.25,15.84,2.43-.3,4.61-.54,6.77-.87.6-.1,1.56-.4,1.65-.77.83-3.54,4.14-6.34,2.37-10.72-1.93-4.77-3.19-9.85-3.01-15.82,1.41,1.76,1.37,3.25,1.64,4.62.2,1.05.25,2.14.58,3.14.86,2.58.87,6.21,3.32,7.17,1.35.52,2.67-3.29,4.13-5.04,2.38-2.83,4.57-5.82,7.64-8.09-5.03,7.85-10.35,15.54-13.57,24.76,8.9-1.32,16.25-5.45,23.81-9.12-6.06,5.86-12.99,10.23-21.4,11.55-3.18.5-4.42,1.78-4.21,4.88.24,3.6.29,7.22.54,10.83.12,1.68.87,2.26,2.69,1.45,5.08-2.26,10.44-3.58,15.97-4.19.8-.09,1.6-.51,2.56.24-1.52,1.39-3.54,1.44-5.23,2.13-2.96,1.2-5.85,2.52-8.68,4.01-4.78,2.51-6.69,6.7-5.58,12.04.44,2.11,1.3.96,2.12.37,4.68-3.36,9.55-6.37,15.05-8.25,7.43-2.55,15.16-3.19,22.9-3.76,1.4-.1,2.67-.18,3.8-1.24,4.38-4.13,9.45-7.25,14.97-9.58,2.12-.89,2.18-1.7.75-3.36-3.38-3.89-6.19-8.13-6.73-13.46-.06-.6-.25-1.26.31-1.82,1.18.4.91,1.53,1.14,2.38,1.32,4.68,4.25,8.25,7.8,11.43,1.07.95,1.72.77,2.56-.3,2.42-3.1,4.83-6.2,7.28-10.48l2.03.76c-3.38,7.24-8.33,13.61-15.07,19.2,6.81.2,12.76-1.34,18.8-2.26-.44.51-.85.92-1.29,1.27-.98.78-2.15,1.26-4.18,1.81-5.16,1.39-10.46,2.1-15.78,2-2.76-.05-4.27,1.19-5.93,3.54,11.72.53,23.27,2.09,35,2.58,7.83.33,15.74.19,23.83-1.05-1.74,1.32-3.42,2.03-5.07,2.44-1.69.43-3.34.54-4.95.67-12.88,1.04-25.72.03-38.57-.84-9.62-.64-19.29-1.9-28.89.41-.29.07-.56.25-1.42.63,6.27,2.16,9.83,7.65,15.73,9.78,6,2.16,12.12,1.7,18.46,1.38-2.92,4.04-13.44,4.35-24.28.97l-2.15-.57c.34-.09.67-.18,1.01-.28-5.21-3.49-9.81-6.1-14.81-7.85-2.25-.79-4.61-.08-6.84.78-7.73,2.99-12.85,8.92-17.29,15.53-5.75,8.55-11.01,17.44-17.49,25.5-.18.22-.2.57-.37,1.13,6.51-1.42,13-1.56,19.42-2.31,2.68-.31,4.89-1.41,6.83-3.14,3.41-3.04,6.79-6.13,10.11-9.27,3.95-3.73,8.58-5.93,13.65-7.17,1.4-.35,2.84-.62,4.31-.83-3.63,3.4-8.84,4.12-13.02,7.71,9.66,1.22,17.36,7.42,26.96,7.67,4.16.11,8.23-.61,12.37-.62.22,1.11-.66.95-1.15,1.07-8.2,2.04-16.21,1.51-24.11-1.51-4.37-1.67-8.96-2.62-13.57-3.46-2.78-.5-5,.25-6.57,2.75-1.65,2.62-4.45,4.21-6.43,6.68.75,1.04,1.82.78,2.65.8,9.71.34,18.92,2.69,27.66,6.85,3.99,1.91,8.04,2.4,12.37,1.68,7.98-1.35,15.89-2.91,23.43-5.97,4.46-1.8,5.64-4.09,4.39-8.91-.58-2.23-1.48-4.39-2.29-6.76q2.44,1.62,5.19,11.86c5.9-3.38,9.91-8.55,14.15-14.33.06,1.43-.23,2.58-.67,3.6-.53,1.2-1.27,2.19-1.91,3.2-5.6,8.71-14.16,13.2-23.65,16.31-6.64,2.18-13.53,3.35-21.17,4.79,6.35,3.79,12.64,6.09,17.87,10.24-4.46-.22-8.33-2.14-12.2-4.03-5.92-2.88-11.47-6.59-17.91-8.29-7.46-1.97-15.06-2.37-22.67-2.17-2.49.06-4.98.19-7.46.35-14.17.9-27.88,4.53-41.64,7.76-10.59,2.49-18.78,9.22-27.17,15.57-1.1.84-2.16,1.73-3.22,2.62-.14.11-.18.35-.38.76,7.04-.99,13.96-1.68,20.96-1.76,7.58-.08,14.21,3.4,21.35,4.91,5.83,1.23,11.65,2.49,17.65,2.36,1.49-.03,2.94-.17,4.4-.6,4.42-1.29,5.35-2.62,4.79-7.09-.14-1.12-.63-2.26.05-3.55,1.81,1.33,1.85,3.3,2.02,5.15.22,2.31,1.23,2.73,3.13,1.58.94-.56,1.88-1.13,2.83-1.69,2.43-1.46,4.86-2.92,7.3-4.36,1.18-.7,2.45-1.17,3.97-.89-10.37,7.35-20.55,15.13-34.81,14.56,3.65,3.05,8.03,4.72,10.2,9-10.71-7.34-22.75-11.32-35.43-14.92,1.62,5.03,2.55,9.66,1.67,14.89-1.94-1.66-1.3-3.58-1.9-5.11-.77-1.98-1.48-3.96-2.47-5.86-1.29-2.45-2.9-3.25-5.67-2.07-5.96,2.54-11.99,4.93-18.06,7.18-5.13,1.91-10.5,2.75-15.98,2.22-2.04-.2-3.61.39-5.34,1.42-6.69,3.97-10.73,9.63-13.36,17.01-7.64,21.44-9.95,43.2-5.63,65.59.87,4.51,2.5,8.77,4.76,12.79,3.48,6.23,8.54,10.29,15.77,11.13,3.44.4,6.8,1.04,10.07,1.91,7.98,2.07,15.51,5.4,22.85,9.46,7.86,4.34,16.14,6.34,25.13,2.91,3.15-1.2,6.73-.65,10.13-.36.35.03.67.37,1.85,1.05-6.75.93-11.79,4.16-17.3,6.17-5.72,2.08-11.32.99-16.9-.63-.9-.27-1.71-.96-2.96-.58.24,1.65.39,3.31.44,4.97.11,3.33-.16,6.66-.89,9.96-1.23-.06-1.17-.95-1.45-1.6-.95-2.25-1.83-4.53-2.9-6.73-4.18-8.58-6.73-9.94-16.07-8.35-4.55.77-8.83-.19-13.37-1.56.39,2.41,1.28,4.61.32,7.55-1.07-2.21-1.87-3.88-2.68-5.55-1.41-2.86-3.43-4.74-6.88-4.81-2.97-.07-5.93-.45-8.9-.68-1.41-.11-2.04.29-1.95,1.98.12,2.51-.01,5.08-1.78,7.54-.34-.44-.5-.89-.58-1.32-.09-.61-.02-1.2-.04-1.75-.25-4.97-2.44-8.36-7.29-10.12-3.95-1.43-7.9-2.61-12.12-2.26-4.68.39-5.45,2.12-3.03,6.09,1.82,2.98,3.95,5.85,4.17,9.53.08,1.21.47,2.49-.53,3.89-1.54-2.56-2.96-4.98-4.44-7.36-1.46-2.33-4.19-3.67-5.09-6.73-4.97,4.53-6.07,10.3-5.12,16.17.15.94.24,1.85.28,2.76.23,4.81-.98,9.21-2.71,13.67-1.86,4.8-2.98,9.58-1.43,14.87,1.41,4.77-1.15,8.98-3.48,13.16,1.09-6.95,1.05-13.8-1.42-20.61-2.31.88-3.82,3.85-7.8,4.77,4.41-5.07,4.95-10.72,6.36-16.09.85-3.22,1.03-6.5,1.38-9.77.1-.96.08-2.12-.84-2.58-.77-.37-1.6.39-2.28.87-1.3.91-2.42,2.08-4.26,2.75.29-2.75,2.35-3.98,3.9-5.55.72-.72,1.71-1.13,1.76-2.46.12-3.31-.89-4.19-4.12-3.35-.62.16-1.22.38-1.85.47-6.23.92-10.84,3.57-12.19,10.38-.45,2.24-2.04,4.14-4.46,5.22,1.28-2.63,2.41-5.27,2.73-8.18.24-2.1.4-3.58-2.65-2.55-5.12,1.72-10.23,1.29-15.26-.82-3.57-1.5-5.24-.59-6.27,3.26-.58,2.13-.92,4.34-1.71,6.52-1.76-2.91-1.79-6.04-.9-9.21.61-2.17,1.56-4.24-.55-6.17-2.08-1.91-4.39-2.33-7.08-1.61-8.33,2.26-15.92,5.89-22.45,11.63-.9.8-1.82,1.58-2.91,2.3-1.1.71-2.37,1.36-3.98,1.9,2.54-3.57,4.59-6.44,6.95-9.74-11.58-1.08-20.86-8.04-31.65-10.74-2.82-.71-5.7-.62-8.56-.82-1.08-.08-2.32.45-3.45-.77,6.28-1.57,12.24-2.47,18.61-.78,8.55,2.27,17.16,2.83,25.68,1.05,2.33-.49,4.65-1.15,6.97-2,.6-.21,1.2-.42,1.78-.68.15-.07.21-.33.41-.69-4.49-1.75-9.25-2.12-13.85-3.41,6.72-.94,13.44-.41,20.12.41,6.97.86,14.02-.36,20.95,1.16,5.3,1.17,10.67,2.08,15.98.6,17.03-5.31,22.4-21.31,25.22-37.27,3.05-17.22,4.09-34.62,1.29-52.09-2.01-12.49-8.19-22.58-16.6-31.69-9.42-10.2-20.14-18.93-30.81-27.73-.8-.66-1.67-1.5-2.75-.37-4.99,5.2-11.86,6.91-18.15,9.68-2.4,1.05-3.38,2.24-3.65,5.09-.82,8.47-2.89,16.74-5.07,24.96-.08.3-.23.59-.53.73-.03-1.06-.01-2.11.04-3.16.27-6.56,1.7-13.07,1.23-20.46-1.32,2.03-2.16,3.3-2.98,4.58-3.96,6.24-8.04,12.38-13.58,17.35-.37.33-.75.66-1.13.98-6.78,5.68-14.79,7.86-23.48,8.28,3.68-1.48,7.36-2.96,11.02-4.42-.13-.7-.59-.77-1-.78-5.7-.04-10.89-1.98-15.72-4.74-5.26-2.99-10.86-4.13-16.8-4.24-2.71-.05-5.46.02-8.1-1.03,4.76-.62,9.58-.2,14.96-1.1-3.07-3.33-6.09-6.21-8.2-9.9,5.3,3.28,9.51,8.08,15.64,11.2-.32-4.95-.61-9.51-.95-14.76,2.17,4.47,2.44,8.76,3.52,12.81.98,3.66,3.16,5.7,6.48,6.77,7.04,2.26,14.07,3.71,20.77-1.07,2.47-1.76,4.43-3.91,5.58-7.42-9.91,3.38-18.87,2.56-27.31-4.26,2.21-.35,3.69.53,5.2,1.02,2.15.71,3.4.82,2.9-2.2-.36-2.18-.64-4.55,1.09-7.18.8,3.36,1.17,6.29,2.91,8.73,1.14,1.6,2.22,2.71,4.46,1.97,1.59-.53,3.37-.44,5.02-.84,5.75-1.39,10.49-3.47,12.55-10.14,2.74-8.87,7.37-16.92,15.07-23.34-4.86-1.27-8.99-.06-13.06.81-16.75,3.58-33.02,8.9-49.49,13.49-15.16,4.23-29.94,4.34-44.71-1.48-5.79-2.29-11.8-2.85-18.14-1.64-7.47,1.42-11.75,5.87-14.42,12.5-.31.76-.27,1.7-1.57,2.55-.09-3.12,1.1-5.65,1.82-8.55-7.01-.1-13.89-.08-20.95-3.47,2.21-.44,3.53.2,4.82.59,6.44,1.91,12.34,1.08,17.88-2.87,3.44-2.46,6.91-4.99,11.63-6.13-18.63-10.87-31.9-27.87-49.89-38.98,2.61-.31,4.7.87,6.72,2.08,3.28,1.96,6.47,4.08,9.54,6.28,4.83,3.56,9.61,7.37,15.15,11.78-2.34-9.29-3.58-17.72-2.6-26.39.34,2.12.67,4.25,1.06,6.75.03-.02.06-.05.09-.07l.61.81c-.12.01-.26.03-.39.05,1.49,7.63,2.81,15.35,6.82,22.04,2.11,3.52,6.53,4.96,10.19,6.88,13.35,7,27.51,9.92,42.55,8.25.72-.08,1.42-.28,2.72-.55-3.08-.93-5.57-1.72-8.08-2.45-13.38-3.88-19.85-13.39-21.81-26.64-.12-.81-.21-1.62-.34-2.43-.26-1.77-.66-3.5-1.75-5.15-2.08-3.14-4.3-5.45-8.34-6.05-3.2-.48-6.1-2.23-8.95-5.33,3.99,1.22,6.95,3.37,11.03,2.7-4.73-7.03-10.88-11.92-18.29-15.36,9.23,1.95,15.75,7.43,21.32,14.39,1.55,1.95,3.04,4.02,4.49,6.16.98-4.36,2.16-8.04,5.73-10.78.3,1.4-.52,2.12-.91,2.98-2.54,5.67-3.36,11.32,0,17.03,3.08,5.23,6.04,10.49,10.31,14.91,5.18,5.38,12.06,6.39,18.84,7.69,3.59.7,7,1.79,10.1,3.71,1.03.64,2.02,1.16,3.28.85,8.66-2.11,16.88-5.54,25.76-8.28-8.58-4.13-16.63-8.17-24.83-11.89-4.05-1.84-8.33-.58-12.93.44,2.41-2.81,5.71-2.14,8.69-3.44-9.02-7.01-17.48-14.15-29.51-14.91q1.9-1.37,5.38-1.75c-2.74-3.4-5.31-6.74-6.92-10.68-1.57-3.85-2.4-7.87-2.78-12.13,5.31,8.06,10.81,15.85,18.9,21.4,8.05,5.52,16.88,9.29,26.13,12.62.61-2.52-1-4.71-.42-7.31,1.69,1.6,1.94,3.72,2.99,5.37,3.87,6.09,9.96,9.02,16.15,12,4.92,2.37,9.55,2.68,14.96,1.17,19.65-5.47,38.1-1.77,55.45,8.49,2.84,1.67,5.74,3.23,8.58,4.9,1.98,1.16,2.63.46,2.65-1.62.04-5.02-1.25-9.89-1.51-14.9-.39-7.39-.21-14.67,1.82-21.82.66-2.33.39-4.38-1.11-6.31-.97-1.26-1.76-2.66-2.73-3.92-6.68-8.64-15.23-12.18-26.11-9.79-5.41,1.19-10.71,2.68-15.8,4.85-7.06,3.01-8.89,11.04-3.9,16.83.66.77,1.7,1.26,1.98,2.4q-2.76-.23-6.68-4.7c-2.17,2.53-3.46,5.83-6.81,7.42,3.74-5.6,6.26-11.62,7.16-18.57-4.67,1.6-9.14,3.14-13.61,4.67-11.13,3.82-21.9,2.96-32.53-2.05-8.37-3.94-17.02-7.22-26.17-8.99-.73-.14-1.5-.2-1.76-1.38,9.13.26,17.83,2.22,26.64,5.54-1.45-5.35-3.89-10.02-3.21-15.34,1.36,2.94,1.91,6.13,3.41,9.02,4.2,8.11,11.42,11.72,20.38,10.07,5.57-1.02,10.78-3.12,16.72-5.2-5.22-2.25-7.32-6.82-10.36-10.55-.71-.87-1.49-1.65-2.23-2.63-.6-.76-1.11-1.72-1.91-3.21,2.79,1.3,4.03,3.42,5.67,5.06,3.15,3.15,6.04,6.58,10.54,7.96,1.05.31,2.1.7,3.11.35,7.29-2.55,14.46-5.39,21.84-9.59-3.95-1.54-7.37-2.77-10.7-4.19-13.1-5.62-26.71-8.24-40.98-7.62-8.71.38-17.43-.26-26.09-1.18-5.36-.57-9.65,2.15-14.21,3.98-5,2.01-9.8,4.54-15.49,3.82-.49-.1-.98-.22-1.48-.34-3.1-.77-6.22-1.99-8.94-4.08-.82-.63-1.94-.91-2.89-3.12,10.63,6.38,20.34,7.16,29.32-2.07-17.67-4.16-33.87-11.63-48.94-22.27,1.53-.68,2.39.19,3.32.64,13.59,6.49,27.54,11.75,42.72,13.18,10.83,1.02,21.67,1.28,32.53,1.11,13.67-.21,27.24.34,40.24,5.22,2.78,1.04,2.52-.67,2.38-2.33-.58-6.93-3.95-12.49-8.76-17.25-1.58-1.57-3.31-3.04-5.16-4.26-9.68-6.39-19.73-12.17-30.41-16.72-6.5-2.78-13.61-2.97-20.43-2.01-3.57.51-6.79,3.34-10.21,5.04-2.96,1.47-5.97,2.86-9.42,2.51-1.03-.1-2.16.11-3.24-1.56,6.58.62,11.52-2.32,16.88-6.13-13.07-1.28-23.99-6.18-33.59-14.15,6.42,2.9,12.78,6,19.95,7.74-.87-4.65-2.44-8.98-1.63-13.6,1.01,3.03,1.68,6.14,2.57,9.18,1.49,5.1,4.91,6.99,9.77,7.33,4.56.32,9.09.77,13.69.17,4.45-.57,8.88.26,13.7.97-2.72-4.05-5.85-7.49-7.51-11.81.2-.2.4-.4.6-.61.83.99,1.61,2.02,2.48,2.96,5.57,6.04,11.94,10.86,20,13.13,3.95,1.12,7.8,2.52,11.63,4.28-6.35-5.8-8.79-13.25-10.35-21.36-1.96-10.18-8.01-17.04-18.15-20.26-8.73-2.76-17.78-4.22-26.53-6.89-3.87-1.19-7.67-2.53-11.35-4.22-1.01-.47-2.17-.82-2.96-2.49,9.07,2.65,17.56,5.9,27.11,6.85-3.54-5.03-3.6-10.48-4.4-16.73,1.93,3.01,1.98,5.69,2.74,8.08,2.12,6.68,6.29,10.39,13.26,11.59,10.07,1.73,17.68,6.94,21.73,16.91v-41.77c.2-.01.41-.02.61-.02.48,6.18.96,12.37,1.44,18.56.17,2.12.41,4.24.47,6.36.06,2.05.52,2.85,2.84,2.03,2.9-1.03,5.09-2.57,6.09-5.55.77-2.29,1.93-4.45,2.47-6.77.27-1.06.34-2.37,1.89-2.74.46,2.44-.67,4.56-1.1,6.76-.85,4.29-.92,4.27,3.6,4.49.42.02.85.03,1.26.11.17.04.3.25.53.47-.54.97-1.62,1.22-2.39,1.12-5.42-.74-8.96,3.3-13.36,5.12Zm151.78,167.28c-.21-7.52-.54-14.5-3.98-20.94-3.15-5.88-3.05-5.94-9.11-3.01-.39.19-.79.34-1.16.53-8.77,4.49-17.11,9.63-23.34,17.44-5.25,6.59-6.86,13.7-2.22,21.52,2.22,3.73,3.88,7.79,5.82,11.69.45.92.79,1.79,1.98,2.28,3.95,1.62,7.78,2.43,11.91.51,2.36-1.1,5.3-1.5,7.37-.03,3.4,2.42,4.94.39,6.59-1.91.92-1.29,1.75-2.68,2.37-4.14,3.35-7.81,3.17-16.18,3.77-23.94Z"
         style="fill: #05a101;"
         id="path310" />
    </g>
  </g>
  <g
     id="MTEXT">
    <text
       transform="translate(238.02 580.73)"
       style="font-family: ArialMT, Arial; font-size: 16.21px;"
       id="text317"><tspan
         x="0"
         y="0"
         id="tspan315">xuxiaolong</tspan></text>
  </g>
  <metadata
     id="metadata1469">
    <rdf:RDF>
      <cc:Work
         rdf:about="">
        <cc:license
           rdf:resource="http://creativecommons.org/licenses/by-nc/4.0/" />
        <dc:title>Free Tree Silhouette SVG Design for Download</dc:title>
        <dc:rights>
          <cc:Agent>
            <dc:title>https://www.templatesarea.com/license-agreement/</dc:title>
          </cc:Agent>
        </dc:rights>
        <dc:creator>
          <cc:Agent>
            <dc:title>templatesarea.com</dc:title>
          </cc:Agent>
        </dc:creator>
        <dc:publisher>
          <cc:Agent>
            <dc:title>templatesarea.com</dc:title>
          </cc:Agent>
        </dc:publisher>
        <dc:description>Make your designs stand out with our Tree Free SVG Silhouette Design. Download for free and use in any digital project.</dc:description>
      </cc:Work>
      <cc:License
         rdf:about="http://creativecommons.org/licenses/by-nc/4.0/">
        <cc:permits
           rdf:resource="http://creativecommons.org/ns#Reproduction" />
        <cc:permits
           rdf:resource="http://creativecommons.org/ns#Distribution" />
        <cc:requires
           rdf:resource="http://creativecommons.org/ns#Notice" />
        <cc:requires
           rdf:resource="http://creativecommons.org/ns#Attribution" />
        <cc:prohibits
           rdf:resource="http://creativecommons.org/ns#CommercialUse" />
        <cc:permits
           rdf:resource="http://creativecommons.org/ns#DerivativeWorks" />
      </cc:License>
    </rdf:RDF>
  </metadata>
</svg>
